<mxfile host="app.diagrams.net" modified="2021-08-21T13:56:19.169Z" agent="5.0 (Windows NT 10.0; Win64; x64) AppleWebKit/537.36 (KHTML, like Gecko) Chrome/92.0.4515.159 Safari/537.36 Edg/92.0.902.78" etag="Dweb1hBFt9dS_SLDTPYD" version="14.8.0" type="github">
  <diagram id="s_GMS8ftn7kM8diY95VE" name="Page-1">
    <mxGraphModel dx="-2769" dy="-66" grid="0" gridSize="10" guides="0" tooltips="1" connect="1" arrows="1" fold="1" page="0" pageScale="1" pageWidth="827" pageHeight="1169" math="0" shadow="0">
      <root>
        <mxCell id="0" />
        <mxCell id="1" parent="0" />
        <mxCell id="G2OFI__iiG1zhYpODbyy-1" style="edgeStyle=orthogonalEdgeStyle;rounded=0;orthogonalLoop=1;jettySize=auto;html=1;exitX=0.5;exitY=1;exitDx=0;exitDy=0;" parent="1" source="G2OFI__iiG1zhYpODbyy-5" target="G2OFI__iiG1zhYpODbyy-22" edge="1">
          <mxGeometry relative="1" as="geometry" />
        </mxCell>
        <mxCell id="G2OFI__iiG1zhYpODbyy-2" style="edgeStyle=orthogonalEdgeStyle;rounded=0;orthogonalLoop=1;jettySize=auto;html=1;" parent="1" source="G2OFI__iiG1zhYpODbyy-5" target="G2OFI__iiG1zhYpODbyy-16" edge="1">
          <mxGeometry relative="1" as="geometry" />
        </mxCell>
        <mxCell id="G2OFI__iiG1zhYpODbyy-3" style="edgeStyle=orthogonalEdgeStyle;rounded=0;orthogonalLoop=1;jettySize=auto;html=1;entryX=0.5;entryY=0;entryDx=0;entryDy=0;exitX=0.5;exitY=1;exitDx=0;exitDy=0;" parent="1" source="G2OFI__iiG1zhYpODbyy-5" target="G2OFI__iiG1zhYpODbyy-9" edge="1">
          <mxGeometry relative="1" as="geometry" />
        </mxCell>
        <mxCell id="G2OFI__iiG1zhYpODbyy-4" style="edgeStyle=orthogonalEdgeStyle;rounded=0;orthogonalLoop=1;jettySize=auto;html=1;exitX=0.5;exitY=1;exitDx=0;exitDy=0;" parent="1" source="G2OFI__iiG1zhYpODbyy-5" target="G2OFI__iiG1zhYpODbyy-200" edge="1">
          <mxGeometry relative="1" as="geometry" />
        </mxCell>
        <mxCell id="G2OFI__iiG1zhYpODbyy-5" value="&lt;span style=&quot;font-size: 20px&quot;&gt;&lt;/span&gt;&lt;span style=&quot;color: black ; font-size: 20px&quot;&gt;城市建筑物系统&lt;/span&gt;" style="rounded=1;whiteSpace=wrap;html=1;fontSize=20;fontStyle=1" parent="1" vertex="1">
          <mxGeometry x="5700" y="1200" width="213" height="51" as="geometry" />
        </mxCell>
        <mxCell id="G2OFI__iiG1zhYpODbyy-6" style="edgeStyle=orthogonalEdgeStyle;rounded=0;orthogonalLoop=1;jettySize=auto;html=1;fontSize=15;exitX=0.5;exitY=1;exitDx=0;exitDy=0;" parent="1" source="G2OFI__iiG1zhYpODbyy-9" target="G2OFI__iiG1zhYpODbyy-54" edge="1">
          <mxGeometry relative="1" as="geometry" />
        </mxCell>
        <mxCell id="G2OFI__iiG1zhYpODbyy-7" style="edgeStyle=orthogonalEdgeStyle;rounded=0;orthogonalLoop=1;jettySize=auto;html=1;fontSize=15;exitX=0.5;exitY=1;exitDx=0;exitDy=0;" parent="1" source="G2OFI__iiG1zhYpODbyy-9" target="G2OFI__iiG1zhYpODbyy-65" edge="1">
          <mxGeometry relative="1" as="geometry" />
        </mxCell>
        <mxCell id="G2OFI__iiG1zhYpODbyy-8" style="edgeStyle=orthogonalEdgeStyle;rounded=0;orthogonalLoop=1;jettySize=auto;html=1;fontSize=15;exitX=0.5;exitY=1;exitDx=0;exitDy=0;" parent="1" source="G2OFI__iiG1zhYpODbyy-9" target="G2OFI__iiG1zhYpODbyy-76" edge="1">
          <mxGeometry relative="1" as="geometry" />
        </mxCell>
        <mxCell id="G2OFI__iiG1zhYpODbyy-9" value="数据反演分系统" style="rounded=1;whiteSpace=wrap;html=1;fontSize=15;align=center;verticalAlign=middle;fontStyle=1" parent="1" vertex="1">
          <mxGeometry x="5320" y="1360" width="30" height="180" as="geometry" />
        </mxCell>
        <mxCell id="G2OFI__iiG1zhYpODbyy-10" style="edgeStyle=orthogonalEdgeStyle;rounded=0;orthogonalLoop=1;jettySize=auto;html=1;fontSize=15;exitX=0.5;exitY=1;exitDx=0;exitDy=0;" parent="1" source="G2OFI__iiG1zhYpODbyy-16" target="G2OFI__iiG1zhYpODbyy-85" edge="1">
          <mxGeometry relative="1" as="geometry" />
        </mxCell>
        <mxCell id="G2OFI__iiG1zhYpODbyy-11" style="edgeStyle=orthogonalEdgeStyle;rounded=0;orthogonalLoop=1;jettySize=auto;html=1;fontSize=15;exitX=0.5;exitY=1;exitDx=0;exitDy=0;" parent="1" source="G2OFI__iiG1zhYpODbyy-16" target="G2OFI__iiG1zhYpODbyy-89" edge="1">
          <mxGeometry relative="1" as="geometry" />
        </mxCell>
        <mxCell id="G2OFI__iiG1zhYpODbyy-12" style="edgeStyle=orthogonalEdgeStyle;rounded=0;orthogonalLoop=1;jettySize=auto;html=1;fontSize=15;" parent="1" source="G2OFI__iiG1zhYpODbyy-16" target="G2OFI__iiG1zhYpODbyy-93" edge="1">
          <mxGeometry relative="1" as="geometry" />
        </mxCell>
        <mxCell id="G2OFI__iiG1zhYpODbyy-13" style="edgeStyle=orthogonalEdgeStyle;rounded=0;orthogonalLoop=1;jettySize=auto;html=1;fontSize=15;exitX=0.5;exitY=1;exitDx=0;exitDy=0;" parent="1" source="G2OFI__iiG1zhYpODbyy-16" target="G2OFI__iiG1zhYpODbyy-97" edge="1">
          <mxGeometry relative="1" as="geometry" />
        </mxCell>
        <mxCell id="G2OFI__iiG1zhYpODbyy-14" style="edgeStyle=orthogonalEdgeStyle;rounded=0;orthogonalLoop=1;jettySize=auto;html=1;fontSize=15;exitX=0.5;exitY=1;exitDx=0;exitDy=0;" parent="1" source="G2OFI__iiG1zhYpODbyy-16" target="G2OFI__iiG1zhYpODbyy-101" edge="1">
          <mxGeometry relative="1" as="geometry" />
        </mxCell>
        <mxCell id="G2OFI__iiG1zhYpODbyy-15" style="edgeStyle=orthogonalEdgeStyle;rounded=0;orthogonalLoop=1;jettySize=auto;html=1;fontSize=15;exitX=0.5;exitY=1;exitDx=0;exitDy=0;" parent="1" source="G2OFI__iiG1zhYpODbyy-16" target="G2OFI__iiG1zhYpODbyy-105" edge="1">
          <mxGeometry relative="1" as="geometry" />
        </mxCell>
        <mxCell id="G2OFI__iiG1zhYpODbyy-16" value="数据分析分系统" style="rounded=1;whiteSpace=wrap;html=1;fontSize=15;align=center;verticalAlign=middle;fontStyle=1" parent="1" vertex="1">
          <mxGeometry x="5790" y="1360" width="30" height="180" as="geometry" />
        </mxCell>
        <mxCell id="G2OFI__iiG1zhYpODbyy-17" style="edgeStyle=orthogonalEdgeStyle;rounded=0;orthogonalLoop=1;jettySize=auto;html=1;fontSize=15;exitX=0.5;exitY=1;exitDx=0;exitDy=0;" parent="1" source="G2OFI__iiG1zhYpODbyy-22" target="G2OFI__iiG1zhYpODbyy-109" edge="1">
          <mxGeometry relative="1" as="geometry" />
        </mxCell>
        <mxCell id="G2OFI__iiG1zhYpODbyy-18" style="edgeStyle=orthogonalEdgeStyle;rounded=0;orthogonalLoop=1;jettySize=auto;html=1;fontSize=15;exitX=0.5;exitY=1;exitDx=0;exitDy=0;" parent="1" source="G2OFI__iiG1zhYpODbyy-22" target="G2OFI__iiG1zhYpODbyy-112" edge="1">
          <mxGeometry relative="1" as="geometry" />
        </mxCell>
        <mxCell id="G2OFI__iiG1zhYpODbyy-19" style="edgeStyle=orthogonalEdgeStyle;rounded=0;orthogonalLoop=1;jettySize=auto;html=1;fontSize=15;exitX=0.5;exitY=1;exitDx=0;exitDy=0;" parent="1" source="G2OFI__iiG1zhYpODbyy-22" target="G2OFI__iiG1zhYpODbyy-120" edge="1">
          <mxGeometry relative="1" as="geometry" />
        </mxCell>
        <mxCell id="G2OFI__iiG1zhYpODbyy-20" style="edgeStyle=orthogonalEdgeStyle;rounded=0;orthogonalLoop=1;jettySize=auto;html=1;fontSize=15;exitX=0.5;exitY=1;exitDx=0;exitDy=0;" parent="1" source="G2OFI__iiG1zhYpODbyy-22" target="G2OFI__iiG1zhYpODbyy-148" edge="1">
          <mxGeometry relative="1" as="geometry" />
        </mxCell>
        <mxCell id="G2OFI__iiG1zhYpODbyy-21" style="edgeStyle=orthogonalEdgeStyle;rounded=0;orthogonalLoop=1;jettySize=auto;html=1;fontSize=15;exitX=0.5;exitY=1;exitDx=0;exitDy=0;" parent="1" source="G2OFI__iiG1zhYpODbyy-22" target="G2OFI__iiG1zhYpODbyy-154" edge="1">
          <mxGeometry relative="1" as="geometry" />
        </mxCell>
        <mxCell id="G2OFI__iiG1zhYpODbyy-22" value="仿真可视化分系统" style="rounded=1;whiteSpace=wrap;html=1;fontSize=15;align=center;verticalAlign=middle;fontStyle=1" parent="1" vertex="1">
          <mxGeometry x="6362" y="1361" width="30" height="180" as="geometry" />
        </mxCell>
        <mxCell id="G2OFI__iiG1zhYpODbyy-23" style="edgeStyle=orthogonalEdgeStyle;rounded=0;orthogonalLoop=1;jettySize=auto;html=1;exitX=0.5;exitY=1;exitDx=0;exitDy=0;" parent="1" source="G2OFI__iiG1zhYpODbyy-29" target="G2OFI__iiG1zhYpODbyy-30" edge="1">
          <mxGeometry relative="1" as="geometry" />
        </mxCell>
        <mxCell id="G2OFI__iiG1zhYpODbyy-24" style="edgeStyle=orthogonalEdgeStyle;rounded=0;orthogonalLoop=1;jettySize=auto;html=1;exitX=0.5;exitY=1;exitDx=0;exitDy=0;" parent="1" source="G2OFI__iiG1zhYpODbyy-29" target="G2OFI__iiG1zhYpODbyy-31" edge="1">
          <mxGeometry relative="1" as="geometry" />
        </mxCell>
        <mxCell id="G2OFI__iiG1zhYpODbyy-25" style="edgeStyle=orthogonalEdgeStyle;rounded=0;orthogonalLoop=1;jettySize=auto;html=1;exitX=0.5;exitY=1;exitDx=0;exitDy=0;" parent="1" source="G2OFI__iiG1zhYpODbyy-29" target="G2OFI__iiG1zhYpODbyy-32" edge="1">
          <mxGeometry relative="1" as="geometry" />
        </mxCell>
        <mxCell id="G2OFI__iiG1zhYpODbyy-26" style="edgeStyle=orthogonalEdgeStyle;rounded=0;orthogonalLoop=1;jettySize=auto;html=1;entryX=0.5;entryY=0;entryDx=0;entryDy=0;exitX=0.5;exitY=1;exitDx=0;exitDy=0;" parent="1" source="G2OFI__iiG1zhYpODbyy-29" target="G2OFI__iiG1zhYpODbyy-33" edge="1">
          <mxGeometry relative="1" as="geometry" />
        </mxCell>
        <mxCell id="G2OFI__iiG1zhYpODbyy-27" style="edgeStyle=orthogonalEdgeStyle;rounded=0;orthogonalLoop=1;jettySize=auto;html=1;exitX=0.5;exitY=1;exitDx=0;exitDy=0;" parent="1" source="G2OFI__iiG1zhYpODbyy-29" target="G2OFI__iiG1zhYpODbyy-34" edge="1">
          <mxGeometry relative="1" as="geometry" />
        </mxCell>
        <mxCell id="G2OFI__iiG1zhYpODbyy-28" style="edgeStyle=orthogonalEdgeStyle;rounded=0;orthogonalLoop=1;jettySize=auto;html=1;fontSize=8;startArrow=none;startFill=0;exitX=0.5;exitY=1;exitDx=0;exitDy=0;" parent="1" source="G2OFI__iiG1zhYpODbyy-29" target="G2OFI__iiG1zhYpODbyy-35" edge="1">
          <mxGeometry relative="1" as="geometry" />
        </mxCell>
        <mxCell id="G2OFI__iiG1zhYpODbyy-29" value="专家子系统" style="rounded=1;whiteSpace=wrap;html=1;fontSize=15;align=center;verticalAlign=middle;fontStyle=1" parent="1" vertex="1">
          <mxGeometry x="4900" y="1600" width="30" height="190" as="geometry" />
        </mxCell>
        <mxCell id="G2OFI__iiG1zhYpODbyy-30" value="规划模块" style="rounded=1;whiteSpace=wrap;html=1;" parent="1" vertex="1">
          <mxGeometry x="4860" y="1861" width="15" height="200" as="geometry" />
        </mxCell>
        <mxCell id="G2OFI__iiG1zhYpODbyy-31" value="建筑模块" style="rounded=1;whiteSpace=wrap;html=1;" parent="1" vertex="1">
          <mxGeometry x="4880" y="1861" width="15" height="200" as="geometry" />
        </mxCell>
        <mxCell id="G2OFI__iiG1zhYpODbyy-32" value="结构模块" style="rounded=1;whiteSpace=wrap;html=1;" parent="1" vertex="1">
          <mxGeometry x="4900" y="1860" width="15" height="200" as="geometry" />
        </mxCell>
        <mxCell id="G2OFI__iiG1zhYpODbyy-33" value="给排水模块" style="rounded=1;whiteSpace=wrap;html=1;" parent="1" vertex="1">
          <mxGeometry x="4940" y="1860" width="15" height="200" as="geometry" />
        </mxCell>
        <mxCell id="G2OFI__iiG1zhYpODbyy-34" value="电气模块" style="rounded=1;whiteSpace=wrap;html=1;" parent="1" vertex="1">
          <mxGeometry x="4960" y="1860" width="15" height="200" as="geometry" />
        </mxCell>
        <mxCell id="G2OFI__iiG1zhYpODbyy-35" value="暖通模块" style="rounded=1;whiteSpace=wrap;html=1;" parent="1" vertex="1">
          <mxGeometry x="4920" y="1860" width="15" height="200" as="geometry" />
        </mxCell>
        <mxCell id="G2OFI__iiG1zhYpODbyy-36" style="edgeStyle=orthogonalEdgeStyle;rounded=0;orthogonalLoop=1;jettySize=auto;html=1;exitX=0.5;exitY=1;exitDx=0;exitDy=0;" parent="1" source="G2OFI__iiG1zhYpODbyy-42" target="G2OFI__iiG1zhYpODbyy-43" edge="1">
          <mxGeometry relative="1" as="geometry" />
        </mxCell>
        <mxCell id="G2OFI__iiG1zhYpODbyy-37" style="edgeStyle=orthogonalEdgeStyle;rounded=0;orthogonalLoop=1;jettySize=auto;html=1;exitX=0.5;exitY=1;exitDx=0;exitDy=0;" parent="1" source="G2OFI__iiG1zhYpODbyy-42" target="G2OFI__iiG1zhYpODbyy-44" edge="1">
          <mxGeometry relative="1" as="geometry" />
        </mxCell>
        <mxCell id="G2OFI__iiG1zhYpODbyy-38" style="edgeStyle=orthogonalEdgeStyle;rounded=0;orthogonalLoop=1;jettySize=auto;html=1;exitX=0.5;exitY=1;exitDx=0;exitDy=0;" parent="1" source="G2OFI__iiG1zhYpODbyy-42" target="G2OFI__iiG1zhYpODbyy-45" edge="1">
          <mxGeometry relative="1" as="geometry" />
        </mxCell>
        <mxCell id="G2OFI__iiG1zhYpODbyy-39" style="edgeStyle=orthogonalEdgeStyle;rounded=0;orthogonalLoop=1;jettySize=auto;html=1;exitX=0.5;exitY=1;exitDx=0;exitDy=0;" parent="1" source="G2OFI__iiG1zhYpODbyy-42" target="G2OFI__iiG1zhYpODbyy-46" edge="1">
          <mxGeometry relative="1" as="geometry" />
        </mxCell>
        <mxCell id="G2OFI__iiG1zhYpODbyy-40" style="edgeStyle=orthogonalEdgeStyle;rounded=0;orthogonalLoop=1;jettySize=auto;html=1;exitX=0.5;exitY=1;exitDx=0;exitDy=0;" parent="1" source="G2OFI__iiG1zhYpODbyy-42" target="G2OFI__iiG1zhYpODbyy-47" edge="1">
          <mxGeometry relative="1" as="geometry" />
        </mxCell>
        <mxCell id="G2OFI__iiG1zhYpODbyy-41" style="edgeStyle=orthogonalEdgeStyle;rounded=0;orthogonalLoop=1;jettySize=auto;html=1;fontSize=8;startArrow=none;startFill=0;exitX=0.5;exitY=1;exitDx=0;exitDy=0;" parent="1" source="G2OFI__iiG1zhYpODbyy-42" target="G2OFI__iiG1zhYpODbyy-48" edge="1">
          <mxGeometry relative="1" as="geometry" />
        </mxCell>
        <mxCell id="G2OFI__iiG1zhYpODbyy-42" value="知识图谱子系统" style="rounded=1;fontSize=15;align=center;verticalAlign=middle;labelBackgroundColor=none;labelBorderColor=none;whiteSpace=wrap;html=1;fontStyle=1" parent="1" vertex="1">
          <mxGeometry x="5040" y="1600" width="30" height="190" as="geometry" />
        </mxCell>
        <mxCell id="G2OFI__iiG1zhYpODbyy-43" value="规划模块" style="rounded=1;whiteSpace=wrap;html=1;" parent="1" vertex="1">
          <mxGeometry x="5010" y="1860" width="15" height="200" as="geometry" />
        </mxCell>
        <mxCell id="G2OFI__iiG1zhYpODbyy-44" value="建筑模块" style="rounded=1;whiteSpace=wrap;html=1;" parent="1" vertex="1">
          <mxGeometry x="5030" y="1860" width="15" height="200" as="geometry" />
        </mxCell>
        <mxCell id="G2OFI__iiG1zhYpODbyy-45" value="结构模块" style="rounded=1;whiteSpace=wrap;html=1;" parent="1" vertex="1">
          <mxGeometry x="5050" y="1860" width="15" height="200" as="geometry" />
        </mxCell>
        <mxCell id="G2OFI__iiG1zhYpODbyy-46" value="给排水模块" style="rounded=1;whiteSpace=wrap;html=1;" parent="1" vertex="1">
          <mxGeometry x="5090" y="1860" width="15" height="200" as="geometry" />
        </mxCell>
        <mxCell id="G2OFI__iiG1zhYpODbyy-47" value="电气模块" style="rounded=1;whiteSpace=wrap;html=1;" parent="1" vertex="1">
          <mxGeometry x="5110" y="1860" width="15" height="200" as="geometry" />
        </mxCell>
        <mxCell id="G2OFI__iiG1zhYpODbyy-48" value="暖通模块" style="rounded=1;whiteSpace=wrap;html=1;" parent="1" vertex="1">
          <mxGeometry x="5070" y="1860" width="15" height="200" as="geometry" />
        </mxCell>
        <mxCell id="G2OFI__iiG1zhYpODbyy-49" style="edgeStyle=orthogonalEdgeStyle;rounded=0;orthogonalLoop=1;jettySize=auto;html=1;exitX=0.5;exitY=1;exitDx=0;exitDy=0;" parent="1" source="G2OFI__iiG1zhYpODbyy-54" target="G2OFI__iiG1zhYpODbyy-55" edge="1">
          <mxGeometry relative="1" as="geometry" />
        </mxCell>
        <mxCell id="G2OFI__iiG1zhYpODbyy-50" style="edgeStyle=orthogonalEdgeStyle;rounded=0;orthogonalLoop=1;jettySize=auto;html=1;exitX=0.5;exitY=1;exitDx=0;exitDy=0;" parent="1" source="G2OFI__iiG1zhYpODbyy-54" target="G2OFI__iiG1zhYpODbyy-56" edge="1">
          <mxGeometry relative="1" as="geometry" />
        </mxCell>
        <mxCell id="G2OFI__iiG1zhYpODbyy-51" style="edgeStyle=orthogonalEdgeStyle;rounded=0;orthogonalLoop=1;jettySize=auto;html=1;exitX=0.5;exitY=1;exitDx=0;exitDy=0;" parent="1" source="G2OFI__iiG1zhYpODbyy-54" target="G2OFI__iiG1zhYpODbyy-57" edge="1">
          <mxGeometry relative="1" as="geometry" />
        </mxCell>
        <mxCell id="G2OFI__iiG1zhYpODbyy-52" style="edgeStyle=orthogonalEdgeStyle;rounded=0;orthogonalLoop=1;jettySize=auto;html=1;exitX=0.5;exitY=1;exitDx=0;exitDy=0;" parent="1" source="G2OFI__iiG1zhYpODbyy-54" target="G2OFI__iiG1zhYpODbyy-58" edge="1">
          <mxGeometry relative="1" as="geometry" />
        </mxCell>
        <mxCell id="G2OFI__iiG1zhYpODbyy-53" style="edgeStyle=orthogonalEdgeStyle;rounded=0;orthogonalLoop=1;jettySize=auto;html=1;exitX=0.5;exitY=1;exitDx=0;exitDy=0;" parent="1" source="G2OFI__iiG1zhYpODbyy-54" target="G2OFI__iiG1zhYpODbyy-59" edge="1">
          <mxGeometry relative="1" as="geometry" />
        </mxCell>
        <mxCell id="G2OFI__iiG1zhYpODbyy-54" value="民用建筑工程子系统" style="rounded=1;whiteSpace=wrap;html=1;fontSize=15;align=center;verticalAlign=middle;fontStyle=1" parent="1" vertex="1">
          <mxGeometry x="5200" y="1600" width="30" height="190" as="geometry" />
        </mxCell>
        <mxCell id="G2OFI__iiG1zhYpODbyy-55" value="公共建筑工程图纸分析模块" style="rounded=1;whiteSpace=wrap;html=1;" parent="1" vertex="1">
          <mxGeometry x="5160" y="1860" width="15" height="200" as="geometry" />
        </mxCell>
        <mxCell id="G2OFI__iiG1zhYpODbyy-56" value="倾斜摄影数据分析模块" style="rounded=1;whiteSpace=wrap;html=1;" parent="1" vertex="1">
          <mxGeometry x="5180" y="1860" width="15" height="200" as="geometry" />
        </mxCell>
        <mxCell id="G2OFI__iiG1zhYpODbyy-57" value="影像数据分析模块" style="rounded=1;whiteSpace=wrap;html=1;" parent="1" vertex="1">
          <mxGeometry x="5200" y="1860" width="15" height="200" as="geometry" />
        </mxCell>
        <mxCell id="G2OFI__iiG1zhYpODbyy-58" value="公共建筑数据获取模块" style="rounded=1;whiteSpace=wrap;html=1;" parent="1" vertex="1">
          <mxGeometry x="5220" y="1860" width="15" height="200" as="geometry" />
        </mxCell>
        <mxCell id="G2OFI__iiG1zhYpODbyy-59" value="公共建筑信息模型生成模块" style="rounded=1;whiteSpace=wrap;html=1;" parent="1" vertex="1">
          <mxGeometry x="5240" y="1860" width="15" height="200" as="geometry" />
        </mxCell>
        <mxCell id="G2OFI__iiG1zhYpODbyy-60" style="edgeStyle=orthogonalEdgeStyle;rounded=0;orthogonalLoop=1;jettySize=auto;html=1;entryX=0.5;entryY=0;entryDx=0;entryDy=0;exitX=0.5;exitY=1;exitDx=0;exitDy=0;" parent="1" source="G2OFI__iiG1zhYpODbyy-65" target="G2OFI__iiG1zhYpODbyy-66" edge="1">
          <mxGeometry relative="1" as="geometry" />
        </mxCell>
        <mxCell id="G2OFI__iiG1zhYpODbyy-61" style="edgeStyle=orthogonalEdgeStyle;rounded=0;orthogonalLoop=1;jettySize=auto;html=1;exitX=0.5;exitY=1;exitDx=0;exitDy=0;" parent="1" source="G2OFI__iiG1zhYpODbyy-65" target="G2OFI__iiG1zhYpODbyy-67" edge="1">
          <mxGeometry relative="1" as="geometry" />
        </mxCell>
        <mxCell id="G2OFI__iiG1zhYpODbyy-62" style="edgeStyle=orthogonalEdgeStyle;rounded=0;orthogonalLoop=1;jettySize=auto;html=1;entryX=0.5;entryY=0;entryDx=0;entryDy=0;" parent="1" source="G2OFI__iiG1zhYpODbyy-65" target="G2OFI__iiG1zhYpODbyy-68" edge="1">
          <mxGeometry relative="1" as="geometry" />
        </mxCell>
        <mxCell id="G2OFI__iiG1zhYpODbyy-63" style="edgeStyle=orthogonalEdgeStyle;rounded=0;orthogonalLoop=1;jettySize=auto;html=1;exitX=0.5;exitY=1;exitDx=0;exitDy=0;" parent="1" source="G2OFI__iiG1zhYpODbyy-65" target="G2OFI__iiG1zhYpODbyy-69" edge="1">
          <mxGeometry relative="1" as="geometry" />
        </mxCell>
        <mxCell id="G2OFI__iiG1zhYpODbyy-64" style="edgeStyle=orthogonalEdgeStyle;rounded=0;orthogonalLoop=1;jettySize=auto;html=1;entryX=0.5;entryY=0;entryDx=0;entryDy=0;exitX=0.5;exitY=1;exitDx=0;exitDy=0;" parent="1" source="G2OFI__iiG1zhYpODbyy-65" target="G2OFI__iiG1zhYpODbyy-70" edge="1">
          <mxGeometry relative="1" as="geometry" />
        </mxCell>
        <mxCell id="G2OFI__iiG1zhYpODbyy-65" value="交通工程子系统" style="rounded=1;whiteSpace=wrap;html=1;fontSize=15;align=center;verticalAlign=middle;fontStyle=1" parent="1" vertex="1">
          <mxGeometry x="5320" y="1600" width="30" height="190" as="geometry" />
        </mxCell>
        <mxCell id="G2OFI__iiG1zhYpODbyy-66" value="交通工程图纸分析模块" style="rounded=1;whiteSpace=wrap;html=1;" parent="1" vertex="1">
          <mxGeometry x="5280" y="1860" width="15" height="200" as="geometry" />
        </mxCell>
        <mxCell id="G2OFI__iiG1zhYpODbyy-67" value="倾斜摄影数据分析模块" style="rounded=1;whiteSpace=wrap;html=1;" parent="1" vertex="1">
          <mxGeometry x="5300" y="1860" width="15" height="200" as="geometry" />
        </mxCell>
        <mxCell id="G2OFI__iiG1zhYpODbyy-68" value="影像数据分析模块" style="rounded=1;whiteSpace=wrap;html=1;" parent="1" vertex="1">
          <mxGeometry x="5320" y="1860" width="15" height="200" as="geometry" />
        </mxCell>
        <mxCell id="G2OFI__iiG1zhYpODbyy-69" value="交通工程数据获取模块" style="rounded=1;whiteSpace=wrap;html=1;" parent="1" vertex="1">
          <mxGeometry x="5340" y="1860" width="15" height="200" as="geometry" />
        </mxCell>
        <mxCell id="G2OFI__iiG1zhYpODbyy-70" value="交通工程信息模型生成模块" style="rounded=1;whiteSpace=wrap;html=1;" parent="1" vertex="1">
          <mxGeometry x="5360" y="1860" width="15" height="200" as="geometry" />
        </mxCell>
        <mxCell id="G2OFI__iiG1zhYpODbyy-71" style="edgeStyle=orthogonalEdgeStyle;rounded=0;orthogonalLoop=1;jettySize=auto;html=1;exitX=0.5;exitY=1;exitDx=0;exitDy=0;" parent="1" source="G2OFI__iiG1zhYpODbyy-76" target="G2OFI__iiG1zhYpODbyy-77" edge="1">
          <mxGeometry relative="1" as="geometry" />
        </mxCell>
        <mxCell id="G2OFI__iiG1zhYpODbyy-72" style="edgeStyle=orthogonalEdgeStyle;rounded=0;orthogonalLoop=1;jettySize=auto;html=1;exitX=0.5;exitY=1;exitDx=0;exitDy=0;" parent="1" source="G2OFI__iiG1zhYpODbyy-76" target="G2OFI__iiG1zhYpODbyy-78" edge="1">
          <mxGeometry relative="1" as="geometry" />
        </mxCell>
        <mxCell id="G2OFI__iiG1zhYpODbyy-73" style="edgeStyle=orthogonalEdgeStyle;rounded=0;orthogonalLoop=1;jettySize=auto;html=1;exitX=0.5;exitY=1;exitDx=0;exitDy=0;" parent="1" source="G2OFI__iiG1zhYpODbyy-76" target="G2OFI__iiG1zhYpODbyy-79" edge="1">
          <mxGeometry relative="1" as="geometry" />
        </mxCell>
        <mxCell id="G2OFI__iiG1zhYpODbyy-74" style="edgeStyle=orthogonalEdgeStyle;rounded=0;orthogonalLoop=1;jettySize=auto;html=1;exitX=0.5;exitY=1;exitDx=0;exitDy=0;" parent="1" source="G2OFI__iiG1zhYpODbyy-76" target="G2OFI__iiG1zhYpODbyy-80" edge="1">
          <mxGeometry relative="1" as="geometry" />
        </mxCell>
        <mxCell id="G2OFI__iiG1zhYpODbyy-75" style="edgeStyle=orthogonalEdgeStyle;rounded=0;orthogonalLoop=1;jettySize=auto;html=1;exitX=0.5;exitY=1;exitDx=0;exitDy=0;" parent="1" source="G2OFI__iiG1zhYpODbyy-76" target="G2OFI__iiG1zhYpODbyy-81" edge="1">
          <mxGeometry relative="1" as="geometry" />
        </mxCell>
        <mxCell id="G2OFI__iiG1zhYpODbyy-76" value="古建筑子系统" style="rounded=1;whiteSpace=wrap;html=1;fontSize=15;align=center;verticalAlign=middle;fontStyle=1" parent="1" vertex="1">
          <mxGeometry x="5440" y="1600" width="30" height="190" as="geometry" />
        </mxCell>
        <mxCell id="G2OFI__iiG1zhYpODbyy-77" value="历史图纸与文献分析模块" style="rounded=1;whiteSpace=wrap;html=1;" parent="1" vertex="1">
          <mxGeometry x="5400" y="1860" width="15" height="200" as="geometry" />
        </mxCell>
        <mxCell id="G2OFI__iiG1zhYpODbyy-78" value="倾斜摄影数据分析模块" style="rounded=1;whiteSpace=wrap;html=1;" parent="1" vertex="1">
          <mxGeometry x="5420" y="1860" width="15" height="200" as="geometry" />
        </mxCell>
        <mxCell id="G2OFI__iiG1zhYpODbyy-79" value="影像数据分析模块" style="rounded=1;whiteSpace=wrap;html=1;" parent="1" vertex="1">
          <mxGeometry x="5440" y="1860" width="15" height="200" as="geometry" />
        </mxCell>
        <mxCell id="G2OFI__iiG1zhYpODbyy-80" value="古建筑数据获取模块" style="rounded=1;whiteSpace=wrap;html=1;" parent="1" vertex="1">
          <mxGeometry x="5460" y="1860" width="15" height="200" as="geometry" />
        </mxCell>
        <mxCell id="G2OFI__iiG1zhYpODbyy-81" value="建筑信息模型生成模块" style="rounded=1;whiteSpace=wrap;html=1;" parent="1" vertex="1">
          <mxGeometry x="5480" y="1860" width="15" height="200" as="geometry" />
        </mxCell>
        <mxCell id="G2OFI__iiG1zhYpODbyy-82" style="edgeStyle=orthogonalEdgeStyle;rounded=0;orthogonalLoop=1;jettySize=auto;html=1;fontSize=15;exitX=0.5;exitY=1;exitDx=0;exitDy=0;" parent="1" source="G2OFI__iiG1zhYpODbyy-85" target="G2OFI__iiG1zhYpODbyy-121" edge="1">
          <mxGeometry relative="1" as="geometry" />
        </mxCell>
        <mxCell id="G2OFI__iiG1zhYpODbyy-83" style="edgeStyle=orthogonalEdgeStyle;rounded=0;orthogonalLoop=1;jettySize=auto;html=1;fontSize=15;" parent="1" source="G2OFI__iiG1zhYpODbyy-85" target="G2OFI__iiG1zhYpODbyy-122" edge="1">
          <mxGeometry relative="1" as="geometry" />
        </mxCell>
        <mxCell id="G2OFI__iiG1zhYpODbyy-84" style="edgeStyle=orthogonalEdgeStyle;rounded=0;orthogonalLoop=1;jettySize=auto;html=1;fontSize=15;" parent="1" source="G2OFI__iiG1zhYpODbyy-85" target="G2OFI__iiG1zhYpODbyy-123" edge="1">
          <mxGeometry relative="1" as="geometry" />
        </mxCell>
        <mxCell id="G2OFI__iiG1zhYpODbyy-85" value="路径分析子系统" style="rounded=1;whiteSpace=wrap;html=1;fontSize=15;fontStyle=1" parent="1" vertex="1">
          <mxGeometry x="5590" y="1600" width="30" height="190" as="geometry" />
        </mxCell>
        <mxCell id="G2OFI__iiG1zhYpODbyy-86" style="edgeStyle=orthogonalEdgeStyle;rounded=0;orthogonalLoop=1;jettySize=auto;html=1;fontSize=15;" parent="1" source="G2OFI__iiG1zhYpODbyy-89" target="G2OFI__iiG1zhYpODbyy-124" edge="1">
          <mxGeometry relative="1" as="geometry" />
        </mxCell>
        <mxCell id="G2OFI__iiG1zhYpODbyy-87" style="edgeStyle=orthogonalEdgeStyle;rounded=0;orthogonalLoop=1;jettySize=auto;html=1;fontSize=15;" parent="1" source="G2OFI__iiG1zhYpODbyy-89" target="G2OFI__iiG1zhYpODbyy-125" edge="1">
          <mxGeometry relative="1" as="geometry" />
        </mxCell>
        <mxCell id="G2OFI__iiG1zhYpODbyy-88" style="edgeStyle=orthogonalEdgeStyle;rounded=0;orthogonalLoop=1;jettySize=auto;html=1;fontSize=15;exitX=0.5;exitY=1;exitDx=0;exitDy=0;" parent="1" source="G2OFI__iiG1zhYpODbyy-89" target="G2OFI__iiG1zhYpODbyy-126" edge="1">
          <mxGeometry relative="1" as="geometry" />
        </mxCell>
        <mxCell id="G2OFI__iiG1zhYpODbyy-89" value="视觉分析子系统" style="rounded=1;whiteSpace=wrap;html=1;fontSize=15;fontStyle=1" parent="1" vertex="1">
          <mxGeometry x="5660" y="1600" width="30" height="190" as="geometry" />
        </mxCell>
        <mxCell id="G2OFI__iiG1zhYpODbyy-90" style="edgeStyle=orthogonalEdgeStyle;rounded=0;orthogonalLoop=1;jettySize=auto;html=1;fontSize=15;" parent="1" source="G2OFI__iiG1zhYpODbyy-93" target="G2OFI__iiG1zhYpODbyy-127" edge="1">
          <mxGeometry relative="1" as="geometry" />
        </mxCell>
        <mxCell id="G2OFI__iiG1zhYpODbyy-91" style="edgeStyle=orthogonalEdgeStyle;rounded=0;orthogonalLoop=1;jettySize=auto;html=1;fontSize=15;" parent="1" source="G2OFI__iiG1zhYpODbyy-93" target="G2OFI__iiG1zhYpODbyy-128" edge="1">
          <mxGeometry relative="1" as="geometry" />
        </mxCell>
        <mxCell id="G2OFI__iiG1zhYpODbyy-92" style="edgeStyle=orthogonalEdgeStyle;rounded=0;orthogonalLoop=1;jettySize=auto;html=1;entryX=0.5;entryY=0;entryDx=0;entryDy=0;fontSize=15;exitX=0.5;exitY=1;exitDx=0;exitDy=0;" parent="1" source="G2OFI__iiG1zhYpODbyy-93" target="G2OFI__iiG1zhYpODbyy-129" edge="1">
          <mxGeometry relative="1" as="geometry" />
        </mxCell>
        <mxCell id="G2OFI__iiG1zhYpODbyy-93" value="光学分析子系统" style="rounded=1;whiteSpace=wrap;html=1;fontSize=15;fontStyle=1" parent="1" vertex="1">
          <mxGeometry x="5760" y="1600" width="30" height="190" as="geometry" />
        </mxCell>
        <mxCell id="G2OFI__iiG1zhYpODbyy-94" style="edgeStyle=orthogonalEdgeStyle;rounded=0;orthogonalLoop=1;jettySize=auto;html=1;fontSize=15;" parent="1" source="G2OFI__iiG1zhYpODbyy-97" target="G2OFI__iiG1zhYpODbyy-130" edge="1">
          <mxGeometry relative="1" as="geometry" />
        </mxCell>
        <mxCell id="G2OFI__iiG1zhYpODbyy-95" style="edgeStyle=orthogonalEdgeStyle;rounded=0;orthogonalLoop=1;jettySize=auto;html=1;fontSize=15;" parent="1" source="G2OFI__iiG1zhYpODbyy-97" target="G2OFI__iiG1zhYpODbyy-131" edge="1">
          <mxGeometry relative="1" as="geometry" />
        </mxCell>
        <mxCell id="G2OFI__iiG1zhYpODbyy-96" style="edgeStyle=orthogonalEdgeStyle;rounded=0;orthogonalLoop=1;jettySize=auto;html=1;fontSize=15;exitX=0.5;exitY=1;exitDx=0;exitDy=0;" parent="1" source="G2OFI__iiG1zhYpODbyy-97" target="G2OFI__iiG1zhYpODbyy-132" edge="1">
          <mxGeometry relative="1" as="geometry" />
        </mxCell>
        <mxCell id="G2OFI__iiG1zhYpODbyy-97" value="&lt;br style=&quot;font-size: 15px&quot;&gt;力学分析子系统" style="rounded=1;whiteSpace=wrap;html=1;fontSize=15;fontStyle=1" parent="1" vertex="1">
          <mxGeometry x="5850" y="1600" width="30" height="190" as="geometry" />
        </mxCell>
        <mxCell id="G2OFI__iiG1zhYpODbyy-98" style="edgeStyle=orthogonalEdgeStyle;rounded=0;orthogonalLoop=1;jettySize=auto;html=1;fontSize=15;" parent="1" source="G2OFI__iiG1zhYpODbyy-101" target="G2OFI__iiG1zhYpODbyy-133" edge="1">
          <mxGeometry relative="1" as="geometry" />
        </mxCell>
        <mxCell id="G2OFI__iiG1zhYpODbyy-99" style="edgeStyle=orthogonalEdgeStyle;rounded=0;orthogonalLoop=1;jettySize=auto;html=1;fontSize=15;" parent="1" source="G2OFI__iiG1zhYpODbyy-101" target="G2OFI__iiG1zhYpODbyy-134" edge="1">
          <mxGeometry relative="1" as="geometry" />
        </mxCell>
        <mxCell id="G2OFI__iiG1zhYpODbyy-100" style="edgeStyle=orthogonalEdgeStyle;rounded=0;orthogonalLoop=1;jettySize=auto;html=1;fontSize=15;exitX=0.5;exitY=1;exitDx=0;exitDy=0;" parent="1" source="G2OFI__iiG1zhYpODbyy-101" target="G2OFI__iiG1zhYpODbyy-135" edge="1">
          <mxGeometry relative="1" as="geometry" />
        </mxCell>
        <mxCell id="G2OFI__iiG1zhYpODbyy-101" value="流体力学分析子系统" style="rounded=1;whiteSpace=wrap;html=1;imageWidth=2;fontSize=15;fontStyle=1" parent="1" vertex="1">
          <mxGeometry x="5940" y="1600" width="30" height="190" as="geometry" />
        </mxCell>
        <mxCell id="G2OFI__iiG1zhYpODbyy-102" style="edgeStyle=orthogonalEdgeStyle;rounded=0;orthogonalLoop=1;jettySize=auto;html=1;fontSize=15;" parent="1" source="G2OFI__iiG1zhYpODbyy-105" target="G2OFI__iiG1zhYpODbyy-136" edge="1">
          <mxGeometry relative="1" as="geometry" />
        </mxCell>
        <mxCell id="G2OFI__iiG1zhYpODbyy-103" style="edgeStyle=orthogonalEdgeStyle;rounded=0;orthogonalLoop=1;jettySize=auto;html=1;fontSize=15;" parent="1" source="G2OFI__iiG1zhYpODbyy-105" target="G2OFI__iiG1zhYpODbyy-137" edge="1">
          <mxGeometry relative="1" as="geometry" />
        </mxCell>
        <mxCell id="G2OFI__iiG1zhYpODbyy-104" style="edgeStyle=orthogonalEdgeStyle;rounded=0;orthogonalLoop=1;jettySize=auto;html=1;fontSize=15;exitX=0.5;exitY=1;exitDx=0;exitDy=0;" parent="1" source="G2OFI__iiG1zhYpODbyy-105" target="G2OFI__iiG1zhYpODbyy-138" edge="1">
          <mxGeometry relative="1" as="geometry" />
        </mxCell>
        <mxCell id="G2OFI__iiG1zhYpODbyy-105" value="能耗分析子系统" style="rounded=1;whiteSpace=wrap;html=1;imageWidth=2;fontSize=15;fontStyle=1" parent="1" vertex="1">
          <mxGeometry x="6020" y="1600" width="30" height="190" as="geometry" />
        </mxCell>
        <mxCell id="G2OFI__iiG1zhYpODbyy-106" style="edgeStyle=orthogonalEdgeStyle;rounded=0;orthogonalLoop=1;jettySize=auto;html=1;fontSize=15;exitX=0.5;exitY=1;exitDx=0;exitDy=0;" parent="1" source="G2OFI__iiG1zhYpODbyy-109" target="G2OFI__iiG1zhYpODbyy-139" edge="1">
          <mxGeometry relative="1" as="geometry" />
        </mxCell>
        <mxCell id="G2OFI__iiG1zhYpODbyy-107" style="edgeStyle=orthogonalEdgeStyle;rounded=0;orthogonalLoop=1;jettySize=auto;html=1;fontSize=15;" parent="1" source="G2OFI__iiG1zhYpODbyy-109" target="G2OFI__iiG1zhYpODbyy-140" edge="1">
          <mxGeometry relative="1" as="geometry" />
        </mxCell>
        <mxCell id="G2OFI__iiG1zhYpODbyy-108" style="edgeStyle=orthogonalEdgeStyle;rounded=0;orthogonalLoop=1;jettySize=auto;html=1;fontSize=15;exitX=0.5;exitY=1;exitDx=0;exitDy=0;" parent="1" source="G2OFI__iiG1zhYpODbyy-109" target="G2OFI__iiG1zhYpODbyy-141" edge="1">
          <mxGeometry relative="1" as="geometry" />
        </mxCell>
        <mxCell id="G2OFI__iiG1zhYpODbyy-109" value="二维可视子系统" style="rounded=1;whiteSpace=wrap;html=1;fontSize=15;align=center;verticalAlign=middle;fontStyle=1" parent="1" vertex="1">
          <mxGeometry x="6152" y="1599" width="30" height="190" as="geometry" />
        </mxCell>
        <mxCell id="G2OFI__iiG1zhYpODbyy-110" style="edgeStyle=orthogonalEdgeStyle;rounded=0;orthogonalLoop=1;jettySize=auto;html=1;fontSize=15;" parent="1" source="G2OFI__iiG1zhYpODbyy-112" target="G2OFI__iiG1zhYpODbyy-142" edge="1">
          <mxGeometry relative="1" as="geometry" />
        </mxCell>
        <mxCell id="G2OFI__iiG1zhYpODbyy-111" style="edgeStyle=orthogonalEdgeStyle;rounded=0;orthogonalLoop=1;jettySize=auto;html=1;fontSize=15;" parent="1" source="G2OFI__iiG1zhYpODbyy-112" target="G2OFI__iiG1zhYpODbyy-143" edge="1">
          <mxGeometry relative="1" as="geometry" />
        </mxCell>
        <mxCell id="G2OFI__iiG1zhYpODbyy-112" value="三维可视子系统" style="rounded=1;whiteSpace=wrap;html=1;fontSize=15;align=center;verticalAlign=middle;fontStyle=1" parent="1" vertex="1">
          <mxGeometry x="6223" y="1600" width="30" height="190" as="geometry" />
        </mxCell>
        <mxCell id="G2OFI__iiG1zhYpODbyy-113" style="edgeStyle=orthogonalEdgeStyle;rounded=0;orthogonalLoop=1;jettySize=auto;html=1;fontSize=15;exitX=0.5;exitY=1;exitDx=0;exitDy=0;" parent="1" source="G2OFI__iiG1zhYpODbyy-120" target="G2OFI__iiG1zhYpODbyy-155" edge="1">
          <mxGeometry relative="1" as="geometry" />
        </mxCell>
        <mxCell id="G2OFI__iiG1zhYpODbyy-114" style="edgeStyle=orthogonalEdgeStyle;rounded=0;orthogonalLoop=1;jettySize=auto;html=1;fontSize=15;exitX=0.5;exitY=1;exitDx=0;exitDy=0;" parent="1" source="G2OFI__iiG1zhYpODbyy-120" target="G2OFI__iiG1zhYpODbyy-156" edge="1">
          <mxGeometry relative="1" as="geometry" />
        </mxCell>
        <mxCell id="G2OFI__iiG1zhYpODbyy-115" style="edgeStyle=orthogonalEdgeStyle;rounded=0;orthogonalLoop=1;jettySize=auto;html=1;fontSize=15;exitX=0.5;exitY=1;exitDx=0;exitDy=0;" parent="1" source="G2OFI__iiG1zhYpODbyy-120" target="G2OFI__iiG1zhYpODbyy-157" edge="1">
          <mxGeometry relative="1" as="geometry" />
        </mxCell>
        <mxCell id="G2OFI__iiG1zhYpODbyy-116" style="edgeStyle=orthogonalEdgeStyle;rounded=0;orthogonalLoop=1;jettySize=auto;html=1;fontSize=15;exitX=0.5;exitY=1;exitDx=0;exitDy=0;" parent="1" source="G2OFI__iiG1zhYpODbyy-120" target="G2OFI__iiG1zhYpODbyy-158" edge="1">
          <mxGeometry relative="1" as="geometry" />
        </mxCell>
        <mxCell id="G2OFI__iiG1zhYpODbyy-117" style="edgeStyle=orthogonalEdgeStyle;rounded=0;orthogonalLoop=1;jettySize=auto;html=1;fontSize=15;exitX=0.5;exitY=1;exitDx=0;exitDy=0;" parent="1" source="G2OFI__iiG1zhYpODbyy-120" target="G2OFI__iiG1zhYpODbyy-159" edge="1">
          <mxGeometry relative="1" as="geometry" />
        </mxCell>
        <mxCell id="G2OFI__iiG1zhYpODbyy-118" style="edgeStyle=orthogonalEdgeStyle;rounded=0;orthogonalLoop=1;jettySize=auto;html=1;fontSize=15;exitX=0.5;exitY=1;exitDx=0;exitDy=0;" parent="1" source="G2OFI__iiG1zhYpODbyy-120" target="G2OFI__iiG1zhYpODbyy-160" edge="1">
          <mxGeometry relative="1" as="geometry" />
        </mxCell>
        <mxCell id="G2OFI__iiG1zhYpODbyy-119" style="edgeStyle=orthogonalEdgeStyle;rounded=0;orthogonalLoop=1;jettySize=auto;html=1;fontSize=15;exitX=0.5;exitY=1;exitDx=0;exitDy=0;" parent="1" source="G2OFI__iiG1zhYpODbyy-120" target="G2OFI__iiG1zhYpODbyy-161" edge="1">
          <mxGeometry relative="1" as="geometry" />
        </mxCell>
        <mxCell id="G2OFI__iiG1zhYpODbyy-120" value="环境仿真子系统" style="rounded=1;whiteSpace=wrap;html=1;fontSize=15;align=center;verticalAlign=middle;fontStyle=1" parent="1" vertex="1">
          <mxGeometry x="6330" y="1600" width="30" height="190" as="geometry" />
        </mxCell>
        <mxCell id="G2OFI__iiG1zhYpODbyy-121" value="路径分析数据准备模块" style="rounded=1;whiteSpace=wrap;html=1;" parent="1" vertex="1">
          <mxGeometry x="5570" y="1861" width="15" height="200" as="geometry" />
        </mxCell>
        <mxCell id="G2OFI__iiG1zhYpODbyy-122" value="计算模块" style="rounded=1;whiteSpace=wrap;html=1;" parent="1" vertex="1">
          <mxGeometry x="5594" y="1861" width="15" height="200" as="geometry" />
        </mxCell>
        <mxCell id="G2OFI__iiG1zhYpODbyy-123" value="可视化表达模块" style="rounded=1;whiteSpace=wrap;html=1;" parent="1" vertex="1">
          <mxGeometry x="5620" y="1860" width="15" height="200" as="geometry" />
        </mxCell>
        <mxCell id="G2OFI__iiG1zhYpODbyy-124" value="视觉分析数据准备模块" style="rounded=1;whiteSpace=wrap;html=1;" parent="1" vertex="1">
          <mxGeometry x="5650" y="1861" width="15" height="200" as="geometry" />
        </mxCell>
        <mxCell id="G2OFI__iiG1zhYpODbyy-125" value="计算模块" style="rounded=1;whiteSpace=wrap;html=1;" parent="1" vertex="1">
          <mxGeometry x="5674" y="1861" width="15" height="200" as="geometry" />
        </mxCell>
        <mxCell id="G2OFI__iiG1zhYpODbyy-126" value="可视化表达模块" style="rounded=1;whiteSpace=wrap;html=1;" parent="1" vertex="1">
          <mxGeometry x="5700" y="1860" width="15" height="200" as="geometry" />
        </mxCell>
        <mxCell id="G2OFI__iiG1zhYpODbyy-127" value="光学分析数据准备模块" style="rounded=1;whiteSpace=wrap;html=1;" parent="1" vertex="1">
          <mxGeometry x="5750" y="1861" width="15" height="200" as="geometry" />
        </mxCell>
        <mxCell id="G2OFI__iiG1zhYpODbyy-128" value="计算模块" style="rounded=1;whiteSpace=wrap;html=1;" parent="1" vertex="1">
          <mxGeometry x="5774" y="1861" width="15" height="200" as="geometry" />
        </mxCell>
        <mxCell id="G2OFI__iiG1zhYpODbyy-129" value="可视化表达模块" style="rounded=1;whiteSpace=wrap;html=1;" parent="1" vertex="1">
          <mxGeometry x="5800" y="1860" width="15" height="200" as="geometry" />
        </mxCell>
        <mxCell id="G2OFI__iiG1zhYpODbyy-130" value="力学分析数据准备模块" style="rounded=1;whiteSpace=wrap;html=1;" parent="1" vertex="1">
          <mxGeometry x="5840" y="1861" width="15" height="200" as="geometry" />
        </mxCell>
        <mxCell id="G2OFI__iiG1zhYpODbyy-131" value="计算模块" style="rounded=1;whiteSpace=wrap;html=1;" parent="1" vertex="1">
          <mxGeometry x="5864" y="1861" width="15" height="200" as="geometry" />
        </mxCell>
        <mxCell id="G2OFI__iiG1zhYpODbyy-132" value="可视化表达模块" style="rounded=1;whiteSpace=wrap;html=1;" parent="1" vertex="1">
          <mxGeometry x="5890" y="1860" width="15" height="200" as="geometry" />
        </mxCell>
        <mxCell id="G2OFI__iiG1zhYpODbyy-133" value="流体力学分析数据准备模块" style="rounded=1;whiteSpace=wrap;html=1;" parent="1" vertex="1">
          <mxGeometry x="5930" y="1861" width="15" height="200" as="geometry" />
        </mxCell>
        <mxCell id="G2OFI__iiG1zhYpODbyy-134" value="计算模块" style="rounded=1;whiteSpace=wrap;html=1;" parent="1" vertex="1">
          <mxGeometry x="5954" y="1861" width="15" height="200" as="geometry" />
        </mxCell>
        <mxCell id="G2OFI__iiG1zhYpODbyy-135" value="可视化表达模块" style="rounded=1;whiteSpace=wrap;html=1;" parent="1" vertex="1">
          <mxGeometry x="5980" y="1860" width="15" height="200" as="geometry" />
        </mxCell>
        <mxCell id="G2OFI__iiG1zhYpODbyy-136" value="能耗分析数据准备模块" style="rounded=1;whiteSpace=wrap;html=1;" parent="1" vertex="1">
          <mxGeometry x="6010" y="1861" width="15" height="200" as="geometry" />
        </mxCell>
        <mxCell id="G2OFI__iiG1zhYpODbyy-137" value="计算模块" style="rounded=1;whiteSpace=wrap;html=1;" parent="1" vertex="1">
          <mxGeometry x="6034" y="1861" width="15" height="200" as="geometry" />
        </mxCell>
        <mxCell id="G2OFI__iiG1zhYpODbyy-138" value="可视化表达模块" style="rounded=1;whiteSpace=wrap;html=1;" parent="1" vertex="1">
          <mxGeometry x="6060" y="1860" width="15" height="200" as="geometry" />
        </mxCell>
        <mxCell id="G2OFI__iiG1zhYpODbyy-139" value="P&lt;br&gt;D&lt;br&gt;F图纸可视化模块" style="rounded=1;whiteSpace=wrap;html=1;" parent="1" vertex="1">
          <mxGeometry x="6140" y="1860" width="15" height="200" as="geometry" />
        </mxCell>
        <mxCell id="G2OFI__iiG1zhYpODbyy-140" value="C&lt;br&gt;A&lt;br&gt;D可视化模块" style="rounded=1;whiteSpace=wrap;html=1;" parent="1" vertex="1">
          <mxGeometry x="6160" y="1860" width="15" height="200" as="geometry" />
        </mxCell>
        <mxCell id="G2OFI__iiG1zhYpODbyy-141" value="图表可视化模块" style="rounded=1;whiteSpace=wrap;html=1;" parent="1" vertex="1">
          <mxGeometry x="6180" y="1860" width="15" height="200" as="geometry" />
        </mxCell>
        <mxCell id="G2OFI__iiG1zhYpODbyy-142" value="三维模型实时渲染模块" style="rounded=1;whiteSpace=wrap;html=1;" parent="1" vertex="1">
          <mxGeometry x="6220" y="1860" width="15" height="200" as="geometry" />
        </mxCell>
        <mxCell id="G2OFI__iiG1zhYpODbyy-143" value="三维图表可视化模块" style="rounded=1;whiteSpace=wrap;html=1;" parent="1" vertex="1">
          <mxGeometry x="6240" y="1860" width="15" height="200" as="geometry" />
        </mxCell>
        <mxCell id="G2OFI__iiG1zhYpODbyy-144" style="edgeStyle=orthogonalEdgeStyle;rounded=0;orthogonalLoop=1;jettySize=auto;html=1;fontSize=15;exitX=0.5;exitY=1;exitDx=0;exitDy=0;" parent="1" source="G2OFI__iiG1zhYpODbyy-148" target="G2OFI__iiG1zhYpODbyy-167" edge="1">
          <mxGeometry relative="1" as="geometry" />
        </mxCell>
        <mxCell id="G2OFI__iiG1zhYpODbyy-145" style="edgeStyle=orthogonalEdgeStyle;rounded=0;orthogonalLoop=1;jettySize=auto;html=1;fontSize=15;" parent="1" source="G2OFI__iiG1zhYpODbyy-148" target="G2OFI__iiG1zhYpODbyy-168" edge="1">
          <mxGeometry relative="1" as="geometry" />
        </mxCell>
        <mxCell id="G2OFI__iiG1zhYpODbyy-146" style="edgeStyle=orthogonalEdgeStyle;rounded=0;orthogonalLoop=1;jettySize=auto;html=1;fontSize=15;" parent="1" source="G2OFI__iiG1zhYpODbyy-148" target="G2OFI__iiG1zhYpODbyy-169" edge="1">
          <mxGeometry relative="1" as="geometry" />
        </mxCell>
        <mxCell id="G2OFI__iiG1zhYpODbyy-147" style="edgeStyle=orthogonalEdgeStyle;rounded=0;orthogonalLoop=1;jettySize=auto;html=1;fontSize=15;exitX=0.5;exitY=1;exitDx=0;exitDy=0;" parent="1" source="G2OFI__iiG1zhYpODbyy-148" target="G2OFI__iiG1zhYpODbyy-170" edge="1">
          <mxGeometry relative="1" as="geometry" />
        </mxCell>
        <mxCell id="G2OFI__iiG1zhYpODbyy-148" value="物理引擎子系统" style="rounded=1;whiteSpace=wrap;html=1;fontSize=15;align=center;verticalAlign=middle;fontStyle=1" parent="1" vertex="1">
          <mxGeometry x="6460" y="1600" width="30" height="190" as="geometry" />
        </mxCell>
        <mxCell id="G2OFI__iiG1zhYpODbyy-149" style="edgeStyle=orthogonalEdgeStyle;rounded=0;orthogonalLoop=1;jettySize=auto;html=1;entryX=0.5;entryY=0;entryDx=0;entryDy=0;fontSize=15;exitX=0.5;exitY=1;exitDx=0;exitDy=0;" parent="1" source="G2OFI__iiG1zhYpODbyy-154" target="G2OFI__iiG1zhYpODbyy-162" edge="1">
          <mxGeometry relative="1" as="geometry" />
        </mxCell>
        <mxCell id="G2OFI__iiG1zhYpODbyy-150" style="edgeStyle=orthogonalEdgeStyle;rounded=0;orthogonalLoop=1;jettySize=auto;html=1;fontSize=15;" parent="1" source="G2OFI__iiG1zhYpODbyy-154" target="G2OFI__iiG1zhYpODbyy-163" edge="1">
          <mxGeometry relative="1" as="geometry" />
        </mxCell>
        <mxCell id="G2OFI__iiG1zhYpODbyy-151" style="edgeStyle=orthogonalEdgeStyle;rounded=0;orthogonalLoop=1;jettySize=auto;html=1;entryX=0.5;entryY=0;entryDx=0;entryDy=0;fontSize=15;" parent="1" source="G2OFI__iiG1zhYpODbyy-154" target="G2OFI__iiG1zhYpODbyy-164" edge="1">
          <mxGeometry relative="1" as="geometry" />
        </mxCell>
        <mxCell id="G2OFI__iiG1zhYpODbyy-152" style="edgeStyle=orthogonalEdgeStyle;rounded=0;orthogonalLoop=1;jettySize=auto;html=1;fontSize=15;" parent="1" source="G2OFI__iiG1zhYpODbyy-154" target="G2OFI__iiG1zhYpODbyy-165" edge="1">
          <mxGeometry relative="1" as="geometry" />
        </mxCell>
        <mxCell id="G2OFI__iiG1zhYpODbyy-153" style="edgeStyle=orthogonalEdgeStyle;rounded=0;orthogonalLoop=1;jettySize=auto;html=1;fontSize=15;exitX=0.5;exitY=1;exitDx=0;exitDy=0;" parent="1" source="G2OFI__iiG1zhYpODbyy-154" target="G2OFI__iiG1zhYpODbyy-166" edge="1">
          <mxGeometry relative="1" as="geometry" />
        </mxCell>
        <mxCell id="G2OFI__iiG1zhYpODbyy-154" value="交互控制子系统" style="rounded=1;whiteSpace=wrap;html=1;fontSize=15;align=center;verticalAlign=middle;fontStyle=1" parent="1" vertex="1">
          <mxGeometry x="6580" y="1600" width="30" height="190" as="geometry" />
        </mxCell>
        <mxCell id="G2OFI__iiG1zhYpODbyy-155" value="日照模块" style="rounded=1;whiteSpace=wrap;html=1;" parent="1" vertex="1">
          <mxGeometry x="6280" y="1860" width="15" height="200" as="geometry" />
        </mxCell>
        <mxCell id="G2OFI__iiG1zhYpODbyy-156" value="云雾模块" style="rounded=1;whiteSpace=wrap;html=1;" parent="1" vertex="1">
          <mxGeometry x="6300" y="1860" width="15" height="200" as="geometry" />
        </mxCell>
        <mxCell id="G2OFI__iiG1zhYpODbyy-157" value="雨水模块" style="rounded=1;whiteSpace=wrap;html=1;" parent="1" vertex="1">
          <mxGeometry x="6320" y="1860" width="15" height="200" as="geometry" />
        </mxCell>
        <mxCell id="G2OFI__iiG1zhYpODbyy-158" value="冰雪模块" style="rounded=1;whiteSpace=wrap;html=1;" parent="1" vertex="1">
          <mxGeometry x="6340" y="1860" width="15" height="200" as="geometry" />
        </mxCell>
        <mxCell id="G2OFI__iiG1zhYpODbyy-159" value="风模块" style="rounded=1;whiteSpace=wrap;html=1;" parent="1" vertex="1">
          <mxGeometry x="6360" y="1860" width="15" height="200" as="geometry" />
        </mxCell>
        <mxCell id="G2OFI__iiG1zhYpODbyy-160" value="闪电模块" style="rounded=1;whiteSpace=wrap;html=1;" parent="1" vertex="1">
          <mxGeometry x="6380" y="1860" width="15" height="200" as="geometry" />
        </mxCell>
        <mxCell id="G2OFI__iiG1zhYpODbyy-161" value="火模块" style="rounded=1;whiteSpace=wrap;html=1;" parent="1" vertex="1">
          <mxGeometry x="6400" y="1860" width="15" height="200" as="geometry" />
        </mxCell>
        <mxCell id="G2OFI__iiG1zhYpODbyy-162" value="远程控制模块" style="rounded=1;whiteSpace=wrap;html=1;" parent="1" vertex="1">
          <mxGeometry x="6550" y="1860" width="15" height="200" as="geometry" />
        </mxCell>
        <mxCell id="G2OFI__iiG1zhYpODbyy-163" value="通用控制模块" style="rounded=1;whiteSpace=wrap;html=1;" parent="1" vertex="1">
          <mxGeometry x="6570" y="1860" width="15" height="200" as="geometry" />
        </mxCell>
        <mxCell id="G2OFI__iiG1zhYpODbyy-164" value="V/R控制模块" style="rounded=1;whiteSpace=wrap;html=1;" parent="1" vertex="1">
          <mxGeometry x="6590" y="1860" width="15" height="200" as="geometry" />
        </mxCell>
        <mxCell id="G2OFI__iiG1zhYpODbyy-165" value="A/R&lt;br&gt;控制模块" style="rounded=1;whiteSpace=wrap;html=1;" parent="1" vertex="1">
          <mxGeometry x="6610" y="1860" width="15" height="200" as="geometry" />
        </mxCell>
        <mxCell id="G2OFI__iiG1zhYpODbyy-166" value="眼动控制模块" style="rounded=1;whiteSpace=wrap;html=1;" parent="1" vertex="1">
          <mxGeometry x="6630" y="1860" width="15" height="200" as="geometry" />
        </mxCell>
        <mxCell id="G2OFI__iiG1zhYpODbyy-167" value="A&lt;br&gt;P&lt;br&gt;E&lt;br&gt;X&lt;br&gt;模块" style="rounded=1;whiteSpace=wrap;html=1;" parent="1" vertex="1">
          <mxGeometry x="6437" y="1860" width="15" height="200" as="geometry" />
        </mxCell>
        <mxCell id="G2OFI__iiG1zhYpODbyy-168" value="碰撞模块" style="rounded=1;whiteSpace=wrap;html=1;" parent="1" vertex="1">
          <mxGeometry x="6457" y="1860" width="15" height="200" as="geometry" />
        </mxCell>
        <mxCell id="G2OFI__iiG1zhYpODbyy-169" value="约束模块" style="rounded=1;whiteSpace=wrap;html=1;" parent="1" vertex="1">
          <mxGeometry x="6477" y="1860" width="15" height="200" as="geometry" />
        </mxCell>
        <mxCell id="G2OFI__iiG1zhYpODbyy-170" value="阻尼与阻力模块" style="rounded=1;whiteSpace=wrap;html=1;" parent="1" vertex="1">
          <mxGeometry x="6498" y="1860" width="15" height="200" as="geometry" />
        </mxCell>
        <mxCell id="G2OFI__iiG1zhYpODbyy-171" style="edgeStyle=orthogonalEdgeStyle;rounded=0;orthogonalLoop=1;jettySize=auto;html=1;exitX=0.5;exitY=1;exitDx=0;exitDy=0;" parent="1" source="G2OFI__iiG1zhYpODbyy-175" target="G2OFI__iiG1zhYpODbyy-178" edge="1">
          <mxGeometry relative="1" as="geometry" />
        </mxCell>
        <mxCell id="G2OFI__iiG1zhYpODbyy-172" style="edgeStyle=orthogonalEdgeStyle;rounded=0;orthogonalLoop=1;jettySize=auto;html=1;" parent="1" source="G2OFI__iiG1zhYpODbyy-175" target="G2OFI__iiG1zhYpODbyy-177" edge="1">
          <mxGeometry relative="1" as="geometry" />
        </mxCell>
        <mxCell id="G2OFI__iiG1zhYpODbyy-173" style="edgeStyle=orthogonalEdgeStyle;rounded=0;orthogonalLoop=1;jettySize=auto;html=1;entryX=0.5;entryY=0;entryDx=0;entryDy=0;exitX=0.5;exitY=1;exitDx=0;exitDy=0;" parent="1" source="G2OFI__iiG1zhYpODbyy-175" target="G2OFI__iiG1zhYpODbyy-176" edge="1">
          <mxGeometry relative="1" as="geometry" />
        </mxCell>
        <mxCell id="G2OFI__iiG1zhYpODbyy-174" style="edgeStyle=orthogonalEdgeStyle;rounded=0;orthogonalLoop=1;jettySize=auto;html=1;exitX=0.5;exitY=1;exitDx=0;exitDy=0;" parent="1" source="G2OFI__iiG1zhYpODbyy-175" target="G2OFI__iiG1zhYpODbyy-201" edge="1">
          <mxGeometry relative="1" as="geometry" />
        </mxCell>
        <mxCell id="G2OFI__iiG1zhYpODbyy-175" value="&lt;span style=&quot;font-size: 20px&quot;&gt;&lt;/span&gt;&lt;span style=&quot;color: black ; font-size: 20px&quot;&gt;城市建筑物数据反演和数据挖掘系统&lt;/span&gt;" style="rounded=1;whiteSpace=wrap;html=1;fontSize=20;fontStyle=1" parent="1" vertex="1">
          <mxGeometry x="7180" y="1228" width="213" height="51" as="geometry" />
        </mxCell>
        <mxCell id="G2OFI__iiG1zhYpODbyy-176" value="数据反演分系统" style="rounded=1;whiteSpace=wrap;html=1;fontSize=15;align=center;verticalAlign=middle;fontStyle=1" parent="1" vertex="1">
          <mxGeometry x="7220" y="1400" width="30" height="180" as="geometry" />
        </mxCell>
        <mxCell id="G2OFI__iiG1zhYpODbyy-177" value="数据分析分系统" style="rounded=1;whiteSpace=wrap;html=1;fontSize=15;align=center;verticalAlign=middle;fontStyle=1" parent="1" vertex="1">
          <mxGeometry x="7330" y="1400" width="30" height="180" as="geometry" />
        </mxCell>
        <mxCell id="G2OFI__iiG1zhYpODbyy-178" value="仿真可视化分系统" style="rounded=1;whiteSpace=wrap;html=1;fontSize=15;align=center;verticalAlign=middle;fontStyle=1" parent="1" vertex="1">
          <mxGeometry x="7430" y="1400" width="30" height="180" as="geometry" />
        </mxCell>
        <mxCell id="G2OFI__iiG1zhYpODbyy-179" style="edgeStyle=orthogonalEdgeStyle;rounded=0;orthogonalLoop=1;jettySize=auto;html=1;" parent="1" source="G2OFI__iiG1zhYpODbyy-181" target="G2OFI__iiG1zhYpODbyy-185" edge="1">
          <mxGeometry relative="1" as="geometry" />
        </mxCell>
        <mxCell id="G2OFI__iiG1zhYpODbyy-180" style="edgeStyle=orthogonalEdgeStyle;rounded=0;orthogonalLoop=1;jettySize=auto;html=1;entryX=1;entryY=0.5;entryDx=0;entryDy=0;fontSize=20;exitX=1;exitY=0.5;exitDx=0;exitDy=0;" parent="1" source="G2OFI__iiG1zhYpODbyy-181" target="G2OFI__iiG1zhYpODbyy-187" edge="1">
          <mxGeometry relative="1" as="geometry" />
        </mxCell>
        <mxCell id="G2OFI__iiG1zhYpODbyy-181" value="数据反演分系统" style="rounded=1;whiteSpace=wrap;html=1;fontSize=20;fontStyle=1" parent="1" vertex="1">
          <mxGeometry x="7720" y="1340" width="213" height="51" as="geometry" />
        </mxCell>
        <mxCell id="G2OFI__iiG1zhYpODbyy-182" style="edgeStyle=orthogonalEdgeStyle;rounded=0;orthogonalLoop=1;jettySize=auto;html=1;fontSize=20;" parent="1" source="G2OFI__iiG1zhYpODbyy-183" target="G2OFI__iiG1zhYpODbyy-181" edge="1">
          <mxGeometry relative="1" as="geometry" />
        </mxCell>
        <mxCell id="G2OFI__iiG1zhYpODbyy-183" value="&lt;span style=&quot;font-size: 20px&quot;&gt;&lt;/span&gt;&lt;span style=&quot;color: black ; font-size: 20px&quot;&gt;开始&lt;/span&gt;" style="rounded=1;whiteSpace=wrap;html=1;fontSize=20;fontStyle=1" parent="1" vertex="1">
          <mxGeometry x="7720" y="1240" width="213" height="51" as="geometry" />
        </mxCell>
        <mxCell id="G2OFI__iiG1zhYpODbyy-184" style="edgeStyle=orthogonalEdgeStyle;rounded=0;orthogonalLoop=1;jettySize=auto;html=1;" parent="1" source="G2OFI__iiG1zhYpODbyy-185" target="G2OFI__iiG1zhYpODbyy-187" edge="1">
          <mxGeometry relative="1" as="geometry" />
        </mxCell>
        <mxCell id="G2OFI__iiG1zhYpODbyy-185" value="数据分析分系统" style="rounded=1;whiteSpace=wrap;html=1;fontSize=20;fontStyle=1" parent="1" vertex="1">
          <mxGeometry x="7720" y="1470" width="213" height="51" as="geometry" />
        </mxCell>
        <mxCell id="G2OFI__iiG1zhYpODbyy-186" style="edgeStyle=orthogonalEdgeStyle;rounded=0;orthogonalLoop=1;jettySize=auto;html=1;" parent="1" source="G2OFI__iiG1zhYpODbyy-187" target="G2OFI__iiG1zhYpODbyy-188" edge="1">
          <mxGeometry relative="1" as="geometry" />
        </mxCell>
        <mxCell id="G2OFI__iiG1zhYpODbyy-187" value="仿真可视化分系统" style="rounded=1;whiteSpace=wrap;html=1;fontSize=20;fontStyle=1" parent="1" vertex="1">
          <mxGeometry x="7720" y="1590" width="213" height="51" as="geometry" />
        </mxCell>
        <mxCell id="G2OFI__iiG1zhYpODbyy-188" value="结束" style="rounded=1;whiteSpace=wrap;html=1;fontSize=20;fontStyle=1" parent="1" vertex="1">
          <mxGeometry x="7720" y="1710" width="213" height="51" as="geometry" />
        </mxCell>
        <mxCell id="G2OFI__iiG1zhYpODbyy-189" value="图例：" style="text;html=1;strokeColor=none;fillColor=none;align=center;verticalAlign=middle;whiteSpace=wrap;rounded=0;labelBackgroundColor=none;fontSize=15;" parent="1" vertex="1">
          <mxGeometry x="8549" y="1578" width="61" height="20" as="geometry" />
        </mxCell>
        <mxCell id="G2OFI__iiG1zhYpODbyy-190" value="" style="endArrow=classic;html=1;fontSize=15;" parent="1" edge="1">
          <mxGeometry width="50" height="50" relative="1" as="geometry">
            <mxPoint x="8593" y="1615" as="sourcePoint" />
            <mxPoint x="8643" y="1615" as="targetPoint" />
          </mxGeometry>
        </mxCell>
        <mxCell id="G2OFI__iiG1zhYpODbyy-191" value="数据流" style="text;html=1;strokeColor=none;fillColor=none;align=center;verticalAlign=middle;whiteSpace=wrap;rounded=0;labelBackgroundColor=none;fontSize=8;" parent="1" vertex="1">
          <mxGeometry x="8659" y="1605" width="50" height="20" as="geometry" />
        </mxCell>
        <mxCell id="G2OFI__iiG1zhYpODbyy-192" style="edgeStyle=orthogonalEdgeStyle;rounded=0;orthogonalLoop=1;jettySize=auto;html=1;" parent="1" source="G2OFI__iiG1zhYpODbyy-194" target="G2OFI__iiG1zhYpODbyy-196" edge="1">
          <mxGeometry relative="1" as="geometry" />
        </mxCell>
        <mxCell id="G2OFI__iiG1zhYpODbyy-193" style="edgeStyle=orthogonalEdgeStyle;rounded=0;orthogonalLoop=1;jettySize=auto;html=1;entryX=1;entryY=0.5;entryDx=0;entryDy=0;fontSize=20;exitX=1;exitY=0.5;exitDx=0;exitDy=0;" parent="1" source="G2OFI__iiG1zhYpODbyy-194" target="G2OFI__iiG1zhYpODbyy-197" edge="1">
          <mxGeometry relative="1" as="geometry" />
        </mxCell>
        <mxCell id="G2OFI__iiG1zhYpODbyy-194" value="数据反演分系统" style="rounded=1;whiteSpace=wrap;html=1;fontSize=20;fontStyle=1" parent="1" vertex="1">
          <mxGeometry x="8277" y="1324" width="213" height="51" as="geometry" />
        </mxCell>
        <mxCell id="G2OFI__iiG1zhYpODbyy-195" style="edgeStyle=orthogonalEdgeStyle;rounded=0;orthogonalLoop=1;jettySize=auto;html=1;" parent="1" source="G2OFI__iiG1zhYpODbyy-196" target="G2OFI__iiG1zhYpODbyy-197" edge="1">
          <mxGeometry relative="1" as="geometry" />
        </mxCell>
        <mxCell id="G2OFI__iiG1zhYpODbyy-196" value="数据分析分系统" style="rounded=1;whiteSpace=wrap;html=1;fontSize=20;fontStyle=1" parent="1" vertex="1">
          <mxGeometry x="8277" y="1454" width="213" height="51" as="geometry" />
        </mxCell>
        <mxCell id="G2OFI__iiG1zhYpODbyy-197" value="仿真可视化分系统" style="rounded=1;whiteSpace=wrap;html=1;fontSize=20;fontStyle=1" parent="1" vertex="1">
          <mxGeometry x="8277" y="1574" width="213" height="51" as="geometry" />
        </mxCell>
        <mxCell id="G2OFI__iiG1zhYpODbyy-198" style="edgeStyle=orthogonalEdgeStyle;rounded=0;orthogonalLoop=1;jettySize=auto;html=1;exitX=0.5;exitY=1;exitDx=0;exitDy=0;" parent="1" source="G2OFI__iiG1zhYpODbyy-200" target="G2OFI__iiG1zhYpODbyy-29" edge="1">
          <mxGeometry relative="1" as="geometry" />
        </mxCell>
        <mxCell id="G2OFI__iiG1zhYpODbyy-199" style="edgeStyle=orthogonalEdgeStyle;rounded=0;orthogonalLoop=1;jettySize=auto;html=1;exitX=0.5;exitY=1;exitDx=0;exitDy=0;" parent="1" source="G2OFI__iiG1zhYpODbyy-200" target="G2OFI__iiG1zhYpODbyy-42" edge="1">
          <mxGeometry relative="1" as="geometry" />
        </mxCell>
        <mxCell id="G2OFI__iiG1zhYpODbyy-200" value="城市建筑知识分系统" style="rounded=1;whiteSpace=wrap;html=1;fontSize=15;align=center;verticalAlign=middle;fontStyle=1" parent="1" vertex="1">
          <mxGeometry x="4970" y="1361" width="30" height="180" as="geometry" />
        </mxCell>
        <mxCell id="G2OFI__iiG1zhYpODbyy-201" value="城市建筑知识分系统" style="rounded=1;whiteSpace=wrap;html=1;fontSize=15;align=center;verticalAlign=middle;fontStyle=1" parent="1" vertex="1">
          <mxGeometry x="7120" y="1400" width="30" height="180" as="geometry" />
        </mxCell>
        <mxCell id="G2OFI__iiG1zhYpODbyy-202" style="edgeStyle=orthogonalEdgeStyle;rounded=0;orthogonalLoop=1;jettySize=auto;html=1;fontSize=20;" parent="1" source="G2OFI__iiG1zhYpODbyy-203" target="G2OFI__iiG1zhYpODbyy-181" edge="1">
          <mxGeometry relative="1" as="geometry" />
        </mxCell>
        <mxCell id="G2OFI__iiG1zhYpODbyy-203" value="城市建筑知识分系统" style="rounded=1;whiteSpace=wrap;html=1;fontSize=20;align=center;verticalAlign=middle;fontStyle=1" parent="1" vertex="1">
          <mxGeometry x="7583" y="1250" width="51" height="230" as="geometry" />
        </mxCell>
        <mxCell id="G2OFI__iiG1zhYpODbyy-204" style="edgeStyle=orthogonalEdgeStyle;rounded=0;orthogonalLoop=1;jettySize=auto;html=1;fontSize=20;" parent="1" source="G2OFI__iiG1zhYpODbyy-205" target="G2OFI__iiG1zhYpODbyy-194" edge="1">
          <mxGeometry relative="1" as="geometry" />
        </mxCell>
        <mxCell id="G2OFI__iiG1zhYpODbyy-205" value="城市建筑知识分系统" style="rounded=1;whiteSpace=wrap;html=1;fontSize=20;align=center;verticalAlign=middle;fontStyle=1" parent="1" vertex="1">
          <mxGeometry x="8136" y="1234" width="51" height="230" as="geometry" />
        </mxCell>
        <mxCell id="G2OFI__iiG1zhYpODbyy-206" style="edgeStyle=orthogonalEdgeStyle;rounded=0;orthogonalLoop=1;jettySize=auto;html=1;fontSize=20;exitX=0.5;exitY=1;exitDx=0;exitDy=0;" parent="1" source="G2OFI__iiG1zhYpODbyy-209" target="G2OFI__iiG1zhYpODbyy-213" edge="1">
          <mxGeometry relative="1" as="geometry" />
        </mxCell>
        <mxCell id="G2OFI__iiG1zhYpODbyy-207" style="edgeStyle=orthogonalEdgeStyle;rounded=0;orthogonalLoop=1;jettySize=auto;html=1;fontSize=20;" parent="1" source="G2OFI__iiG1zhYpODbyy-209" target="G2OFI__iiG1zhYpODbyy-215" edge="1">
          <mxGeometry relative="1" as="geometry" />
        </mxCell>
        <mxCell id="G2OFI__iiG1zhYpODbyy-208" style="edgeStyle=orthogonalEdgeStyle;rounded=0;orthogonalLoop=1;jettySize=auto;html=1;fontSize=20;exitX=0.5;exitY=1;exitDx=0;exitDy=0;" parent="1" source="G2OFI__iiG1zhYpODbyy-209" target="G2OFI__iiG1zhYpODbyy-217" edge="1">
          <mxGeometry relative="1" as="geometry" />
        </mxCell>
        <mxCell id="G2OFI__iiG1zhYpODbyy-209" value="时空大数据通用平台" style="rounded=1;whiteSpace=wrap;html=1;fontSize=15;align=center;verticalAlign=middle;fontStyle=1" parent="1" vertex="1">
          <mxGeometry x="7750" y="1920" width="144" height="42" as="geometry" />
        </mxCell>
        <mxCell id="G2OFI__iiG1zhYpODbyy-210" style="edgeStyle=orthogonalEdgeStyle;rounded=0;orthogonalLoop=1;jettySize=auto;html=1;fontSize=20;" parent="1" source="G2OFI__iiG1zhYpODbyy-211" target="G2OFI__iiG1zhYpODbyy-209" edge="1">
          <mxGeometry relative="1" as="geometry" />
        </mxCell>
        <mxCell id="G2OFI__iiG1zhYpODbyy-211" value="&lt;span style=&quot;font-size: 20px&quot;&gt;&lt;/span&gt;&lt;span style=&quot;color: black ; font-size: 20px&quot;&gt;开始&lt;/span&gt;" style="rounded=1;whiteSpace=wrap;html=1;fontSize=20;fontStyle=1" parent="1" vertex="1">
          <mxGeometry x="7781" y="1860" width="83" height="30" as="geometry" />
        </mxCell>
        <mxCell id="G2OFI__iiG1zhYpODbyy-212" style="edgeStyle=orthogonalEdgeStyle;rounded=0;orthogonalLoop=1;jettySize=auto;html=1;entryX=0.5;entryY=0;entryDx=0;entryDy=0;fontSize=20;exitX=0.5;exitY=1;exitDx=0;exitDy=0;" parent="1" source="G2OFI__iiG1zhYpODbyy-213" target="G2OFI__iiG1zhYpODbyy-224" edge="1">
          <mxGeometry relative="1" as="geometry" />
        </mxCell>
        <mxCell id="G2OFI__iiG1zhYpODbyy-213" value="民用建筑工程数据" style="rounded=1;whiteSpace=wrap;html=1;fontSize=15;align=center;verticalAlign=middle;fontStyle=1" parent="1" vertex="1">
          <mxGeometry x="7600" y="2010" width="144" height="42" as="geometry" />
        </mxCell>
        <mxCell id="G2OFI__iiG1zhYpODbyy-214" style="edgeStyle=orthogonalEdgeStyle;rounded=0;orthogonalLoop=1;jettySize=auto;html=1;entryX=0.5;entryY=0;entryDx=0;entryDy=0;fontSize=20;" parent="1" source="G2OFI__iiG1zhYpODbyy-215" target="G2OFI__iiG1zhYpODbyy-224" edge="1">
          <mxGeometry relative="1" as="geometry" />
        </mxCell>
        <mxCell id="G2OFI__iiG1zhYpODbyy-215" value="交通工程数据" style="rounded=1;whiteSpace=wrap;html=1;fontSize=15;align=center;verticalAlign=middle;fontStyle=1" parent="1" vertex="1">
          <mxGeometry x="7750" y="2010" width="144" height="42" as="geometry" />
        </mxCell>
        <mxCell id="G2OFI__iiG1zhYpODbyy-216" style="edgeStyle=orthogonalEdgeStyle;rounded=0;orthogonalLoop=1;jettySize=auto;html=1;fontSize=20;exitX=0.5;exitY=1;exitDx=0;exitDy=0;" parent="1" source="G2OFI__iiG1zhYpODbyy-217" target="G2OFI__iiG1zhYpODbyy-224" edge="1">
          <mxGeometry relative="1" as="geometry" />
        </mxCell>
        <mxCell id="G2OFI__iiG1zhYpODbyy-217" value="古建筑数据" style="rounded=1;whiteSpace=wrap;html=1;fontSize=15;align=center;verticalAlign=middle;fontStyle=1" parent="1" vertex="1">
          <mxGeometry x="7900" y="2010" width="144" height="42" as="geometry" />
        </mxCell>
        <mxCell id="G2OFI__iiG1zhYpODbyy-218" style="edgeStyle=orthogonalEdgeStyle;rounded=0;orthogonalLoop=1;jettySize=auto;html=1;fontSize=20;" parent="1" source="G2OFI__iiG1zhYpODbyy-224" target="G2OFI__iiG1zhYpODbyy-230" edge="1">
          <mxGeometry relative="1" as="geometry" />
        </mxCell>
        <mxCell id="G2OFI__iiG1zhYpODbyy-219" value="N" style="edgeLabel;html=1;align=center;verticalAlign=middle;resizable=0;points=[];fontSize=20;" parent="G2OFI__iiG1zhYpODbyy-218" vertex="1" connectable="0">
          <mxGeometry x="-0.1254" y="1" relative="1" as="geometry">
            <mxPoint as="offset" />
          </mxGeometry>
        </mxCell>
        <mxCell id="G2OFI__iiG1zhYpODbyy-220" style="edgeStyle=orthogonalEdgeStyle;rounded=0;orthogonalLoop=1;jettySize=auto;html=1;fontSize=20;exitX=0.5;exitY=1;exitDx=0;exitDy=0;" parent="1" source="G2OFI__iiG1zhYpODbyy-224" target="G2OFI__iiG1zhYpODbyy-226" edge="1">
          <mxGeometry relative="1" as="geometry" />
        </mxCell>
        <mxCell id="G2OFI__iiG1zhYpODbyy-221" style="edgeStyle=orthogonalEdgeStyle;rounded=0;orthogonalLoop=1;jettySize=auto;html=1;fontSize=20;" parent="1" source="G2OFI__iiG1zhYpODbyy-224" target="G2OFI__iiG1zhYpODbyy-232" edge="1">
          <mxGeometry relative="1" as="geometry" />
        </mxCell>
        <mxCell id="G2OFI__iiG1zhYpODbyy-222" style="edgeStyle=orthogonalEdgeStyle;rounded=0;orthogonalLoop=1;jettySize=auto;html=1;fontSize=20;exitX=0.5;exitY=1;exitDx=0;exitDy=0;" parent="1" source="G2OFI__iiG1zhYpODbyy-224" target="G2OFI__iiG1zhYpODbyy-234" edge="1">
          <mxGeometry relative="1" as="geometry" />
        </mxCell>
        <mxCell id="G2OFI__iiG1zhYpODbyy-223" value="Y" style="edgeLabel;html=1;align=center;verticalAlign=middle;resizable=0;points=[];fontSize=20;" parent="G2OFI__iiG1zhYpODbyy-222" vertex="1" connectable="0">
          <mxGeometry x="-0.815" relative="1" as="geometry">
            <mxPoint as="offset" />
          </mxGeometry>
        </mxCell>
        <mxCell id="G2OFI__iiG1zhYpODbyy-224" value="完整" style="rhombus;whiteSpace=wrap;html=1;fontSize=20;" parent="1" vertex="1">
          <mxGeometry x="7777" y="2140" width="90" height="150" as="geometry" />
        </mxCell>
        <mxCell id="G2OFI__iiG1zhYpODbyy-225" style="edgeStyle=orthogonalEdgeStyle;rounded=0;orthogonalLoop=1;jettySize=auto;html=1;fontSize=20;exitX=0.5;exitY=1;exitDx=0;exitDy=0;" parent="1" source="G2OFI__iiG1zhYpODbyy-226" target="G2OFI__iiG1zhYpODbyy-235" edge="1">
          <mxGeometry relative="1" as="geometry" />
        </mxCell>
        <mxCell id="G2OFI__iiG1zhYpODbyy-226" value="民用建筑工程子系统" style="rounded=1;whiteSpace=wrap;html=1;fontSize=15;align=center;verticalAlign=middle;fontStyle=1" parent="1" vertex="1">
          <mxGeometry x="7640" y="2410" width="90" height="50" as="geometry" />
        </mxCell>
        <mxCell id="G2OFI__iiG1zhYpODbyy-227" style="edgeStyle=orthogonalEdgeStyle;rounded=0;orthogonalLoop=1;jettySize=auto;html=1;entryX=0.5;entryY=1;entryDx=0;entryDy=0;fontSize=20;exitX=0.5;exitY=1;exitDx=0;exitDy=0;" parent="1" source="G2OFI__iiG1zhYpODbyy-230" target="G2OFI__iiG1zhYpODbyy-234" edge="1">
          <mxGeometry relative="1" as="geometry" />
        </mxCell>
        <mxCell id="G2OFI__iiG1zhYpODbyy-228" style="edgeStyle=orthogonalEdgeStyle;rounded=0;orthogonalLoop=1;jettySize=auto;html=1;entryX=0.5;entryY=1;entryDx=0;entryDy=0;fontSize=20;exitX=0.5;exitY=1;exitDx=0;exitDy=0;" parent="1" source="G2OFI__iiG1zhYpODbyy-230" target="G2OFI__iiG1zhYpODbyy-232" edge="1">
          <mxGeometry relative="1" as="geometry" />
        </mxCell>
        <mxCell id="G2OFI__iiG1zhYpODbyy-229" style="edgeStyle=orthogonalEdgeStyle;rounded=0;orthogonalLoop=1;jettySize=auto;html=1;entryX=0.5;entryY=1;entryDx=0;entryDy=0;fontSize=20;exitX=0.5;exitY=1;exitDx=0;exitDy=0;" parent="1" source="G2OFI__iiG1zhYpODbyy-230" target="G2OFI__iiG1zhYpODbyy-226" edge="1">
          <mxGeometry relative="1" as="geometry" />
        </mxCell>
        <mxCell id="G2OFI__iiG1zhYpODbyy-230" value="城市建筑知识分系统" style="rounded=1;whiteSpace=wrap;html=1;fontSize=15;align=center;verticalAlign=middle;fontStyle=1" parent="1" vertex="1">
          <mxGeometry x="8040" y="2125" width="30" height="180" as="geometry" />
        </mxCell>
        <mxCell id="G2OFI__iiG1zhYpODbyy-231" style="edgeStyle=orthogonalEdgeStyle;rounded=0;orthogonalLoop=1;jettySize=auto;html=1;fontSize=20;" parent="1" source="G2OFI__iiG1zhYpODbyy-232" target="G2OFI__iiG1zhYpODbyy-235" edge="1">
          <mxGeometry relative="1" as="geometry" />
        </mxCell>
        <mxCell id="G2OFI__iiG1zhYpODbyy-232" value="交通工程子系统" style="rounded=1;whiteSpace=wrap;html=1;fontSize=15;align=center;verticalAlign=middle;fontStyle=1" parent="1" vertex="1">
          <mxGeometry x="7770" y="2410" width="90" height="50" as="geometry" />
        </mxCell>
        <mxCell id="G2OFI__iiG1zhYpODbyy-233" style="edgeStyle=orthogonalEdgeStyle;rounded=0;orthogonalLoop=1;jettySize=auto;html=1;fontSize=20;exitX=0.5;exitY=1;exitDx=0;exitDy=0;" parent="1" source="G2OFI__iiG1zhYpODbyy-234" target="G2OFI__iiG1zhYpODbyy-235" edge="1">
          <mxGeometry relative="1" as="geometry" />
        </mxCell>
        <mxCell id="G2OFI__iiG1zhYpODbyy-234" value="古建筑子系统" style="rounded=1;whiteSpace=wrap;html=1;fontSize=15;align=center;verticalAlign=middle;fontStyle=1" parent="1" vertex="1">
          <mxGeometry x="7880" y="2410" width="90" height="50" as="geometry" />
        </mxCell>
        <mxCell id="G2OFI__iiG1zhYpODbyy-235" value="&lt;span style=&quot;font-size: 20px&quot;&gt;&lt;/span&gt;&lt;span style=&quot;color: black ; font-size: 20px&quot;&gt;结束&lt;/span&gt;" style="rounded=1;whiteSpace=wrap;html=1;fontSize=20;fontStyle=1" parent="1" vertex="1">
          <mxGeometry x="7773" y="2556" width="83" height="30" as="geometry" />
        </mxCell>
        <mxCell id="G2OFI__iiG1zhYpODbyy-236" style="edgeStyle=orthogonalEdgeStyle;rounded=0;orthogonalLoop=1;jettySize=auto;html=1;fontSize=20;" parent="1" source="G2OFI__iiG1zhYpODbyy-238" target="G2OFI__iiG1zhYpODbyy-242" edge="1">
          <mxGeometry relative="1" as="geometry" />
        </mxCell>
        <mxCell id="G2OFI__iiG1zhYpODbyy-237" style="edgeStyle=orthogonalEdgeStyle;rounded=0;orthogonalLoop=1;jettySize=auto;html=1;fontSize=20;exitX=1;exitY=0.5;exitDx=0;exitDy=0;" parent="1" source="G2OFI__iiG1zhYpODbyy-242" target="G2OFI__iiG1zhYpODbyy-243" edge="1">
          <mxGeometry relative="1" as="geometry" />
        </mxCell>
        <mxCell id="G2OFI__iiG1zhYpODbyy-238" value="城市建筑知识分系统" style="rounded=1;whiteSpace=wrap;html=1;fontSize=15;align=center;verticalAlign=middle;fontStyle=1" parent="1" vertex="1">
          <mxGeometry x="8354" y="2179" width="154" height="26" as="geometry" />
        </mxCell>
        <mxCell id="G2OFI__iiG1zhYpODbyy-239" style="edgeStyle=orthogonalEdgeStyle;rounded=0;orthogonalLoop=1;jettySize=auto;html=1;fontSize=20;" parent="1" source="G2OFI__iiG1zhYpODbyy-241" target="G2OFI__iiG1zhYpODbyy-238" edge="1">
          <mxGeometry relative="1" as="geometry" />
        </mxCell>
        <mxCell id="G2OFI__iiG1zhYpODbyy-240" style="edgeStyle=orthogonalEdgeStyle;rounded=0;orthogonalLoop=1;jettySize=auto;html=1;entryX=0;entryY=0.5;entryDx=0;entryDy=0;fontSize=15;exitX=0;exitY=0.5;exitDx=0;exitDy=0;" parent="1" source="G2OFI__iiG1zhYpODbyy-241" target="G2OFI__iiG1zhYpODbyy-242" edge="1">
          <mxGeometry relative="1" as="geometry" />
        </mxCell>
        <mxCell id="G2OFI__iiG1zhYpODbyy-241" value="时空大数据通用平台" style="rounded=1;whiteSpace=wrap;html=1;fontSize=15;align=center;verticalAlign=middle;fontStyle=1" parent="1" vertex="1">
          <mxGeometry x="8354" y="2012" width="154" height="26" as="geometry" />
        </mxCell>
        <mxCell id="G2OFI__iiG1zhYpODbyy-242" value="数据反演分系统" style="rounded=1;whiteSpace=wrap;html=1;fontSize=15;align=center;verticalAlign=middle;fontStyle=1" parent="1" vertex="1">
          <mxGeometry x="8353" y="2314" width="154" height="26" as="geometry" />
        </mxCell>
        <mxCell id="G2OFI__iiG1zhYpODbyy-243" value="仿真可视化分系统" style="rounded=1;whiteSpace=wrap;html=1;fontSize=15;align=center;verticalAlign=middle;fontStyle=1" parent="1" vertex="1">
          <mxGeometry x="8630" y="2314" width="154" height="26" as="geometry" />
        </mxCell>
        <mxCell id="G2OFI__iiG1zhYpODbyy-244" value="三维可视化数据" style="text;html=1;align=center;verticalAlign=middle;resizable=0;points=[];autosize=1;strokeColor=none;fontSize=15;" parent="1" vertex="1">
          <mxGeometry x="8510" y="2303" width="115" height="22" as="geometry" />
        </mxCell>
        <mxCell id="G2OFI__iiG1zhYpODbyy-245" value="&lt;span style=&quot;font-size: 10.5pt&quot;&gt;人文兵要专题数据&lt;/span&gt;" style="text;html=1;align=center;verticalAlign=middle;resizable=0;points=[];autosize=1;strokeColor=none;fontSize=15;rotation=90;" parent="1" vertex="1">
          <mxGeometry x="8280" y="2190" width="122" height="22" as="geometry" />
        </mxCell>
        <mxCell id="G2OFI__iiG1zhYpODbyy-246" value="&lt;span style=&quot;font-size: 10.5pt&quot;&gt;人文兵要专题数据&lt;/span&gt;" style="text;html=1;align=center;verticalAlign=middle;resizable=0;points=[];autosize=1;strokeColor=none;fontSize=15;rotation=90;" parent="1" vertex="1">
          <mxGeometry x="8380" y="2094" width="122" height="22" as="geometry" />
        </mxCell>
        <mxCell id="G2OFI__iiG1zhYpODbyy-247" value="&lt;span style=&quot;font-size: 10.5pt&quot;&gt;补充数据&lt;br&gt;&lt;/span&gt;" style="text;html=1;align=center;verticalAlign=middle;resizable=0;points=[];autosize=1;strokeColor=none;fontSize=15;rotation=90;" parent="1" vertex="1">
          <mxGeometry x="8408" y="2243" width="66" height="22" as="geometry" />
        </mxCell>
        <mxCell id="G2OFI__iiG1zhYpODbyy-248" style="edgeStyle=orthogonalEdgeStyle;rounded=0;orthogonalLoop=1;jettySize=auto;html=1;exitX=0.5;exitY=1;exitDx=0;exitDy=0;" parent="1" source="G2OFI__iiG1zhYpODbyy-250" target="G2OFI__iiG1zhYpODbyy-253" edge="1">
          <mxGeometry relative="1" as="geometry" />
        </mxCell>
        <mxCell id="G2OFI__iiG1zhYpODbyy-249" style="edgeStyle=orthogonalEdgeStyle;rounded=0;orthogonalLoop=1;jettySize=auto;html=1;exitX=0.5;exitY=1;exitDx=0;exitDy=0;" parent="1" source="G2OFI__iiG1zhYpODbyy-250" target="G2OFI__iiG1zhYpODbyy-258" edge="1">
          <mxGeometry relative="1" as="geometry" />
        </mxCell>
        <mxCell id="G2OFI__iiG1zhYpODbyy-250" value="&lt;span style=&quot;font-size: 20px&quot;&gt;&lt;/span&gt;&lt;span style=&quot;color: black ; font-size: 20px&quot;&gt;开始&lt;/span&gt;" style="rounded=1;whiteSpace=wrap;html=1;fontSize=20;fontStyle=1" parent="1" vertex="1">
          <mxGeometry x="7260" y="1840" width="83" height="30" as="geometry" />
        </mxCell>
        <mxCell id="G2OFI__iiG1zhYpODbyy-251" value="二维可视子系统" style="rounded=1;whiteSpace=wrap;html=1;fontSize=15;align=center;verticalAlign=middle;fontStyle=1;direction=east;" parent="1" vertex="1">
          <mxGeometry x="7360" y="2040" width="70" height="50" as="geometry" />
        </mxCell>
        <mxCell id="G2OFI__iiG1zhYpODbyy-252" style="edgeStyle=orthogonalEdgeStyle;rounded=0;orthogonalLoop=1;jettySize=auto;html=1;" parent="1" source="G2OFI__iiG1zhYpODbyy-253" target="G2OFI__iiG1zhYpODbyy-259" edge="1">
          <mxGeometry relative="1" as="geometry" />
        </mxCell>
        <mxCell id="G2OFI__iiG1zhYpODbyy-253" value="数据反演分系统" style="rounded=1;whiteSpace=wrap;html=1;fontSize=15;align=center;verticalAlign=middle;fontStyle=1;direction=east;" parent="1" vertex="1">
          <mxGeometry x="7180" y="1920" width="70" height="50" as="geometry" />
        </mxCell>
        <mxCell id="G2OFI__iiG1zhYpODbyy-254" style="edgeStyle=orthogonalEdgeStyle;rounded=0;orthogonalLoop=1;jettySize=auto;html=1;" parent="1" source="G2OFI__iiG1zhYpODbyy-258" target="G2OFI__iiG1zhYpODbyy-251" edge="1">
          <mxGeometry relative="1" as="geometry" />
        </mxCell>
        <mxCell id="G2OFI__iiG1zhYpODbyy-255" value="二维数据" style="edgeLabel;html=1;align=center;verticalAlign=middle;resizable=0;points=[];" parent="G2OFI__iiG1zhYpODbyy-254" vertex="1" connectable="0">
          <mxGeometry x="0.2082" relative="1" as="geometry">
            <mxPoint as="offset" />
          </mxGeometry>
        </mxCell>
        <mxCell id="G2OFI__iiG1zhYpODbyy-256" style="edgeStyle=orthogonalEdgeStyle;rounded=0;orthogonalLoop=1;jettySize=auto;html=1;exitX=0.5;exitY=1;exitDx=0;exitDy=0;" parent="1" source="G2OFI__iiG1zhYpODbyy-258" target="G2OFI__iiG1zhYpODbyy-259" edge="1">
          <mxGeometry relative="1" as="geometry" />
        </mxCell>
        <mxCell id="G2OFI__iiG1zhYpODbyy-257" value="三维数据" style="edgeLabel;html=1;align=center;verticalAlign=middle;resizable=0;points=[];" parent="G2OFI__iiG1zhYpODbyy-256" vertex="1" connectable="0">
          <mxGeometry x="0.8011" relative="1" as="geometry">
            <mxPoint as="offset" />
          </mxGeometry>
        </mxCell>
        <mxCell id="G2OFI__iiG1zhYpODbyy-258" value="数据分析分系统" style="rounded=1;whiteSpace=wrap;html=1;fontSize=15;align=center;verticalAlign=middle;fontStyle=1;direction=east;" parent="1" vertex="1">
          <mxGeometry x="7360" y="1920" width="70" height="50" as="geometry" />
        </mxCell>
        <mxCell id="G2OFI__iiG1zhYpODbyy-259" value="三维可视子系统" style="rounded=1;whiteSpace=wrap;html=1;fontSize=15;align=center;verticalAlign=middle;fontStyle=1;direction=east;" parent="1" vertex="1">
          <mxGeometry x="7180" y="2040" width="70" height="50" as="geometry" />
        </mxCell>
        <mxCell id="G2OFI__iiG1zhYpODbyy-260" style="edgeStyle=orthogonalEdgeStyle;rounded=0;orthogonalLoop=1;jettySize=auto;html=1;entryX=0;entryY=0.5;entryDx=0;entryDy=0;" parent="1" source="G2OFI__iiG1zhYpODbyy-261" target="G2OFI__iiG1zhYpODbyy-259" edge="1">
          <mxGeometry relative="1" as="geometry" />
        </mxCell>
        <mxCell id="G2OFI__iiG1zhYpODbyy-261" value="环境仿真子系统" style="rounded=1;whiteSpace=wrap;html=1;fontSize=15;align=center;verticalAlign=middle;fontStyle=1" parent="1" vertex="1">
          <mxGeometry x="7050" y="1970" width="70" height="50" as="geometry" />
        </mxCell>
        <mxCell id="G2OFI__iiG1zhYpODbyy-262" style="edgeStyle=orthogonalEdgeStyle;rounded=0;orthogonalLoop=1;jettySize=auto;html=1;" parent="1" source="G2OFI__iiG1zhYpODbyy-263" target="G2OFI__iiG1zhYpODbyy-259" edge="1">
          <mxGeometry relative="1" as="geometry" />
        </mxCell>
        <mxCell id="G2OFI__iiG1zhYpODbyy-263" value="物理引擎子系统" style="rounded=1;whiteSpace=wrap;html=1;fontSize=15;align=center;verticalAlign=middle;fontStyle=1" parent="1" vertex="1">
          <mxGeometry x="7050" y="2050" width="70" height="50" as="geometry" />
        </mxCell>
        <mxCell id="G2OFI__iiG1zhYpODbyy-264" style="edgeStyle=orthogonalEdgeStyle;rounded=0;orthogonalLoop=1;jettySize=auto;html=1;" parent="1" source="G2OFI__iiG1zhYpODbyy-267" target="G2OFI__iiG1zhYpODbyy-259" edge="1">
          <mxGeometry relative="1" as="geometry" />
        </mxCell>
        <mxCell id="G2OFI__iiG1zhYpODbyy-265" style="edgeStyle=orthogonalEdgeStyle;rounded=0;orthogonalLoop=1;jettySize=auto;html=1;entryX=0.5;entryY=1;entryDx=0;entryDy=0;" parent="1" source="G2OFI__iiG1zhYpODbyy-267" target="G2OFI__iiG1zhYpODbyy-251" edge="1">
          <mxGeometry relative="1" as="geometry" />
        </mxCell>
        <mxCell id="G2OFI__iiG1zhYpODbyy-266" value="交互控制" style="edgeLabel;html=1;align=center;verticalAlign=middle;resizable=0;points=[];" parent="G2OFI__iiG1zhYpODbyy-265" vertex="1" connectable="0">
          <mxGeometry x="-0.779" y="2" relative="1" as="geometry">
            <mxPoint as="offset" />
          </mxGeometry>
        </mxCell>
        <mxCell id="G2OFI__iiG1zhYpODbyy-267" value="交互控制子系统" style="rounded=1;whiteSpace=wrap;html=1;fontSize=15;align=center;verticalAlign=middle;fontStyle=1" parent="1" vertex="1">
          <mxGeometry x="7050" y="2170" width="70" height="50" as="geometry" />
        </mxCell>
        <mxCell id="G2OFI__iiG1zhYpODbyy-268" value="二维可视子系统" style="rounded=1;whiteSpace=wrap;html=1;fontSize=15;align=center;verticalAlign=middle;fontStyle=1;direction=east;" parent="1" vertex="1">
          <mxGeometry x="7365" y="2503" width="70" height="50" as="geometry" />
        </mxCell>
        <mxCell id="G2OFI__iiG1zhYpODbyy-269" style="edgeStyle=orthogonalEdgeStyle;rounded=0;orthogonalLoop=1;jettySize=auto;html=1;" parent="1" source="G2OFI__iiG1zhYpODbyy-270" target="G2OFI__iiG1zhYpODbyy-276" edge="1">
          <mxGeometry relative="1" as="geometry" />
        </mxCell>
        <mxCell id="G2OFI__iiG1zhYpODbyy-270" value="数据反演分系统" style="rounded=1;whiteSpace=wrap;html=1;fontSize=15;align=center;verticalAlign=middle;fontStyle=1;direction=east;" parent="1" vertex="1">
          <mxGeometry x="7185" y="2383" width="70" height="50" as="geometry" />
        </mxCell>
        <mxCell id="G2OFI__iiG1zhYpODbyy-271" style="edgeStyle=orthogonalEdgeStyle;rounded=0;orthogonalLoop=1;jettySize=auto;html=1;" parent="1" source="G2OFI__iiG1zhYpODbyy-275" target="G2OFI__iiG1zhYpODbyy-268" edge="1">
          <mxGeometry relative="1" as="geometry" />
        </mxCell>
        <mxCell id="G2OFI__iiG1zhYpODbyy-272" value="二维数据" style="edgeLabel;html=1;align=center;verticalAlign=middle;resizable=0;points=[];" parent="G2OFI__iiG1zhYpODbyy-271" vertex="1" connectable="0">
          <mxGeometry x="0.2082" relative="1" as="geometry">
            <mxPoint as="offset" />
          </mxGeometry>
        </mxCell>
        <mxCell id="G2OFI__iiG1zhYpODbyy-273" style="edgeStyle=orthogonalEdgeStyle;rounded=0;orthogonalLoop=1;jettySize=auto;html=1;exitX=0.5;exitY=1;exitDx=0;exitDy=0;" parent="1" source="G2OFI__iiG1zhYpODbyy-275" target="G2OFI__iiG1zhYpODbyy-276" edge="1">
          <mxGeometry relative="1" as="geometry" />
        </mxCell>
        <mxCell id="G2OFI__iiG1zhYpODbyy-274" value="三维数据" style="edgeLabel;html=1;align=center;verticalAlign=middle;resizable=0;points=[];" parent="G2OFI__iiG1zhYpODbyy-273" vertex="1" connectable="0">
          <mxGeometry x="0.8011" relative="1" as="geometry">
            <mxPoint as="offset" />
          </mxGeometry>
        </mxCell>
        <mxCell id="G2OFI__iiG1zhYpODbyy-275" value="数据分析分系统" style="rounded=1;whiteSpace=wrap;html=1;fontSize=15;align=center;verticalAlign=middle;fontStyle=1;direction=east;" parent="1" vertex="1">
          <mxGeometry x="7365" y="2383" width="70" height="50" as="geometry" />
        </mxCell>
        <mxCell id="G2OFI__iiG1zhYpODbyy-276" value="三维可视子系统" style="rounded=1;whiteSpace=wrap;html=1;fontSize=15;align=center;verticalAlign=middle;fontStyle=1;direction=east;" parent="1" vertex="1">
          <mxGeometry x="7185" y="2503" width="70" height="50" as="geometry" />
        </mxCell>
        <mxCell id="G2OFI__iiG1zhYpODbyy-277" style="edgeStyle=orthogonalEdgeStyle;rounded=0;orthogonalLoop=1;jettySize=auto;html=1;entryX=0;entryY=0.5;entryDx=0;entryDy=0;" parent="1" source="G2OFI__iiG1zhYpODbyy-278" target="G2OFI__iiG1zhYpODbyy-276" edge="1">
          <mxGeometry relative="1" as="geometry" />
        </mxCell>
        <mxCell id="G2OFI__iiG1zhYpODbyy-278" value="环境仿真子系统" style="rounded=1;whiteSpace=wrap;html=1;fontSize=15;align=center;verticalAlign=middle;fontStyle=1" parent="1" vertex="1">
          <mxGeometry x="7055" y="2433" width="70" height="50" as="geometry" />
        </mxCell>
        <mxCell id="G2OFI__iiG1zhYpODbyy-279" style="edgeStyle=orthogonalEdgeStyle;rounded=0;orthogonalLoop=1;jettySize=auto;html=1;" parent="1" source="G2OFI__iiG1zhYpODbyy-280" target="G2OFI__iiG1zhYpODbyy-276" edge="1">
          <mxGeometry relative="1" as="geometry" />
        </mxCell>
        <mxCell id="G2OFI__iiG1zhYpODbyy-280" value="物理引擎子系统" style="rounded=1;whiteSpace=wrap;html=1;fontSize=15;align=center;verticalAlign=middle;fontStyle=1" parent="1" vertex="1">
          <mxGeometry x="7055" y="2513" width="70" height="50" as="geometry" />
        </mxCell>
        <mxCell id="G2OFI__iiG1zhYpODbyy-281" style="edgeStyle=orthogonalEdgeStyle;rounded=0;orthogonalLoop=1;jettySize=auto;html=1;" parent="1" source="G2OFI__iiG1zhYpODbyy-284" target="G2OFI__iiG1zhYpODbyy-276" edge="1">
          <mxGeometry relative="1" as="geometry" />
        </mxCell>
        <mxCell id="G2OFI__iiG1zhYpODbyy-282" style="edgeStyle=orthogonalEdgeStyle;rounded=0;orthogonalLoop=1;jettySize=auto;html=1;entryX=0.5;entryY=1;entryDx=0;entryDy=0;" parent="1" source="G2OFI__iiG1zhYpODbyy-284" target="G2OFI__iiG1zhYpODbyy-268" edge="1">
          <mxGeometry relative="1" as="geometry" />
        </mxCell>
        <mxCell id="G2OFI__iiG1zhYpODbyy-283" value="交互控制" style="edgeLabel;html=1;align=center;verticalAlign=middle;resizable=0;points=[];" parent="G2OFI__iiG1zhYpODbyy-282" vertex="1" connectable="0">
          <mxGeometry x="-0.779" y="2" relative="1" as="geometry">
            <mxPoint as="offset" />
          </mxGeometry>
        </mxCell>
        <mxCell id="G2OFI__iiG1zhYpODbyy-284" value="交互控制子系统" style="rounded=1;whiteSpace=wrap;html=1;fontSize=15;align=center;verticalAlign=middle;fontStyle=1" parent="1" vertex="1">
          <mxGeometry x="7055" y="2633" width="70" height="50" as="geometry" />
        </mxCell>
        <mxCell id="G2OFI__iiG1zhYpODbyy-285" style="edgeStyle=orthogonalEdgeStyle;rounded=0;orthogonalLoop=1;jettySize=auto;html=1;exitX=0.5;exitY=1;exitDx=0;exitDy=0;" parent="1" source="G2OFI__iiG1zhYpODbyy-286" target="G2OFI__iiG1zhYpODbyy-307" edge="1">
          <mxGeometry relative="1" as="geometry" />
        </mxCell>
        <mxCell id="G2OFI__iiG1zhYpODbyy-286" value="路径分析子系统" style="rounded=1;whiteSpace=wrap;html=1;fontSize=15;fontStyle=1" parent="1" vertex="1">
          <mxGeometry x="7090" y="2960" width="30" height="190" as="geometry" />
        </mxCell>
        <mxCell id="G2OFI__iiG1zhYpODbyy-287" style="edgeStyle=orthogonalEdgeStyle;rounded=0;orthogonalLoop=1;jettySize=auto;html=1;exitX=0.5;exitY=1;exitDx=0;exitDy=0;" parent="1" source="G2OFI__iiG1zhYpODbyy-288" target="G2OFI__iiG1zhYpODbyy-307" edge="1">
          <mxGeometry relative="1" as="geometry" />
        </mxCell>
        <mxCell id="G2OFI__iiG1zhYpODbyy-288" value="视觉分析子系统" style="rounded=1;whiteSpace=wrap;html=1;fontSize=15;fontStyle=1" parent="1" vertex="1">
          <mxGeometry x="7140" y="2960" width="30" height="190" as="geometry" />
        </mxCell>
        <mxCell id="G2OFI__iiG1zhYpODbyy-289" style="edgeStyle=orthogonalEdgeStyle;rounded=0;orthogonalLoop=1;jettySize=auto;html=1;" parent="1" source="G2OFI__iiG1zhYpODbyy-290" target="G2OFI__iiG1zhYpODbyy-307" edge="1">
          <mxGeometry relative="1" as="geometry" />
        </mxCell>
        <mxCell id="G2OFI__iiG1zhYpODbyy-290" value="光学分析子系统" style="rounded=1;whiteSpace=wrap;html=1;fontSize=15;fontStyle=1" parent="1" vertex="1">
          <mxGeometry x="7190" y="2960" width="30" height="190" as="geometry" />
        </mxCell>
        <mxCell id="G2OFI__iiG1zhYpODbyy-291" style="edgeStyle=orthogonalEdgeStyle;rounded=0;orthogonalLoop=1;jettySize=auto;html=1;" parent="1" source="G2OFI__iiG1zhYpODbyy-292" target="G2OFI__iiG1zhYpODbyy-307" edge="1">
          <mxGeometry relative="1" as="geometry" />
        </mxCell>
        <mxCell id="G2OFI__iiG1zhYpODbyy-292" value="&lt;br style=&quot;font-size: 15px&quot;&gt;力学分析子系统" style="rounded=1;whiteSpace=wrap;html=1;fontSize=15;fontStyle=1" parent="1" vertex="1">
          <mxGeometry x="7241" y="2960" width="30" height="190" as="geometry" />
        </mxCell>
        <mxCell id="G2OFI__iiG1zhYpODbyy-293" style="edgeStyle=orthogonalEdgeStyle;rounded=0;orthogonalLoop=1;jettySize=auto;html=1;exitX=0.5;exitY=1;exitDx=0;exitDy=0;" parent="1" source="G2OFI__iiG1zhYpODbyy-294" target="G2OFI__iiG1zhYpODbyy-307" edge="1">
          <mxGeometry relative="1" as="geometry" />
        </mxCell>
        <mxCell id="G2OFI__iiG1zhYpODbyy-294" value="流体力学分析子系统" style="rounded=1;whiteSpace=wrap;html=1;imageWidth=2;fontSize=15;fontStyle=1" parent="1" vertex="1">
          <mxGeometry x="7291.5" y="2960" width="30" height="190" as="geometry" />
        </mxCell>
        <mxCell id="G2OFI__iiG1zhYpODbyy-295" style="edgeStyle=orthogonalEdgeStyle;rounded=0;orthogonalLoop=1;jettySize=auto;html=1;exitX=0.5;exitY=1;exitDx=0;exitDy=0;" parent="1" source="G2OFI__iiG1zhYpODbyy-296" target="G2OFI__iiG1zhYpODbyy-307" edge="1">
          <mxGeometry relative="1" as="geometry" />
        </mxCell>
        <mxCell id="G2OFI__iiG1zhYpODbyy-296" value="能耗分析子系统" style="rounded=1;whiteSpace=wrap;html=1;imageWidth=2;fontSize=15;fontStyle=1" parent="1" vertex="1">
          <mxGeometry x="7343" y="2960" width="30" height="190" as="geometry" />
        </mxCell>
        <mxCell id="G2OFI__iiG1zhYpODbyy-297" style="edgeStyle=orthogonalEdgeStyle;rounded=0;orthogonalLoop=1;jettySize=auto;html=1;" parent="1" source="G2OFI__iiG1zhYpODbyy-298" target="G2OFI__iiG1zhYpODbyy-305" edge="1">
          <mxGeometry relative="1" as="geometry" />
        </mxCell>
        <mxCell id="G2OFI__iiG1zhYpODbyy-298" value="&lt;span style=&quot;font-size: 20px&quot;&gt;&lt;/span&gt;&lt;span style=&quot;color: black ; font-size: 20px&quot;&gt;开始&lt;/span&gt;" style="rounded=1;whiteSpace=wrap;html=1;fontSize=20;fontStyle=1" parent="1" vertex="1">
          <mxGeometry x="7193.5" y="2742" width="83" height="30" as="geometry" />
        </mxCell>
        <mxCell id="G2OFI__iiG1zhYpODbyy-299" style="edgeStyle=orthogonalEdgeStyle;rounded=0;orthogonalLoop=1;jettySize=auto;html=1;exitX=0.5;exitY=1;exitDx=0;exitDy=0;" parent="1" source="G2OFI__iiG1zhYpODbyy-305" target="G2OFI__iiG1zhYpODbyy-286" edge="1">
          <mxGeometry relative="1" as="geometry" />
        </mxCell>
        <mxCell id="G2OFI__iiG1zhYpODbyy-300" style="edgeStyle=orthogonalEdgeStyle;rounded=0;orthogonalLoop=1;jettySize=auto;html=1;exitX=0.5;exitY=1;exitDx=0;exitDy=0;" parent="1" source="G2OFI__iiG1zhYpODbyy-305" target="G2OFI__iiG1zhYpODbyy-288" edge="1">
          <mxGeometry relative="1" as="geometry" />
        </mxCell>
        <mxCell id="G2OFI__iiG1zhYpODbyy-301" style="edgeStyle=orthogonalEdgeStyle;rounded=0;orthogonalLoop=1;jettySize=auto;html=1;" parent="1" source="G2OFI__iiG1zhYpODbyy-305" target="G2OFI__iiG1zhYpODbyy-290" edge="1">
          <mxGeometry relative="1" as="geometry" />
        </mxCell>
        <mxCell id="G2OFI__iiG1zhYpODbyy-302" style="edgeStyle=orthogonalEdgeStyle;rounded=0;orthogonalLoop=1;jettySize=auto;html=1;" parent="1" source="G2OFI__iiG1zhYpODbyy-305" target="G2OFI__iiG1zhYpODbyy-292" edge="1">
          <mxGeometry relative="1" as="geometry" />
        </mxCell>
        <mxCell id="G2OFI__iiG1zhYpODbyy-303" style="edgeStyle=orthogonalEdgeStyle;rounded=0;orthogonalLoop=1;jettySize=auto;html=1;exitX=0.5;exitY=1;exitDx=0;exitDy=0;" parent="1" source="G2OFI__iiG1zhYpODbyy-305" target="G2OFI__iiG1zhYpODbyy-294" edge="1">
          <mxGeometry relative="1" as="geometry" />
        </mxCell>
        <mxCell id="G2OFI__iiG1zhYpODbyy-304" style="edgeStyle=orthogonalEdgeStyle;rounded=0;orthogonalLoop=1;jettySize=auto;html=1;exitX=0.5;exitY=1;exitDx=0;exitDy=0;" parent="1" source="G2OFI__iiG1zhYpODbyy-305" target="G2OFI__iiG1zhYpODbyy-296" edge="1">
          <mxGeometry relative="1" as="geometry" />
        </mxCell>
        <mxCell id="G2OFI__iiG1zhYpODbyy-305" value="数据反演分系统" style="rounded=1;whiteSpace=wrap;html=1;fontSize=15;align=center;verticalAlign=middle;fontStyle=1" parent="1" vertex="1">
          <mxGeometry x="7142" y="2821" width="186" height="42" as="geometry" />
        </mxCell>
        <mxCell id="G2OFI__iiG1zhYpODbyy-306" style="edgeStyle=orthogonalEdgeStyle;rounded=0;orthogonalLoop=1;jettySize=auto;html=1;entryX=0.5;entryY=0;entryDx=0;entryDy=0;" parent="1" source="G2OFI__iiG1zhYpODbyy-307" target="G2OFI__iiG1zhYpODbyy-308" edge="1">
          <mxGeometry relative="1" as="geometry" />
        </mxCell>
        <mxCell id="G2OFI__iiG1zhYpODbyy-307" value="仿真可视化分系统" style="rounded=1;whiteSpace=wrap;html=1;fontSize=15;align=center;verticalAlign=middle;fontStyle=1" parent="1" vertex="1">
          <mxGeometry x="7155" y="3235" width="186" height="42" as="geometry" />
        </mxCell>
        <mxCell id="G2OFI__iiG1zhYpODbyy-308" value="&lt;span style=&quot;font-size: 20px&quot;&gt;&lt;/span&gt;&lt;span style=&quot;color: black ; font-size: 20px&quot;&gt;结束&lt;/span&gt;" style="rounded=1;whiteSpace=wrap;html=1;fontSize=20;fontStyle=1" parent="1" vertex="1">
          <mxGeometry x="7206.5" y="3324" width="83" height="30" as="geometry" />
        </mxCell>
        <mxCell id="G2OFI__iiG1zhYpODbyy-309" style="edgeStyle=orthogonalEdgeStyle;rounded=0;orthogonalLoop=1;jettySize=auto;html=1;exitX=0.5;exitY=1;exitDx=0;exitDy=0;" parent="1" source="G2OFI__iiG1zhYpODbyy-310" target="G2OFI__iiG1zhYpODbyy-330" edge="1">
          <mxGeometry relative="1" as="geometry" />
        </mxCell>
        <mxCell id="G2OFI__iiG1zhYpODbyy-310" value="路径分析子系统" style="rounded=1;whiteSpace=wrap;html=1;fontSize=15;fontStyle=1" parent="1" vertex="1">
          <mxGeometry x="7108" y="3610" width="30" height="190" as="geometry" />
        </mxCell>
        <mxCell id="G2OFI__iiG1zhYpODbyy-311" style="edgeStyle=orthogonalEdgeStyle;rounded=0;orthogonalLoop=1;jettySize=auto;html=1;exitX=0.5;exitY=1;exitDx=0;exitDy=0;" parent="1" source="G2OFI__iiG1zhYpODbyy-312" target="G2OFI__iiG1zhYpODbyy-330" edge="1">
          <mxGeometry relative="1" as="geometry" />
        </mxCell>
        <mxCell id="G2OFI__iiG1zhYpODbyy-312" value="视觉分析子系统" style="rounded=1;whiteSpace=wrap;html=1;fontSize=15;fontStyle=1" parent="1" vertex="1">
          <mxGeometry x="7158" y="3610" width="30" height="190" as="geometry" />
        </mxCell>
        <mxCell id="G2OFI__iiG1zhYpODbyy-313" style="edgeStyle=orthogonalEdgeStyle;rounded=0;orthogonalLoop=1;jettySize=auto;html=1;" parent="1" source="G2OFI__iiG1zhYpODbyy-314" target="G2OFI__iiG1zhYpODbyy-330" edge="1">
          <mxGeometry relative="1" as="geometry" />
        </mxCell>
        <mxCell id="G2OFI__iiG1zhYpODbyy-314" value="光学分析子系统" style="rounded=1;whiteSpace=wrap;html=1;fontSize=15;fontStyle=1" parent="1" vertex="1">
          <mxGeometry x="7208" y="3610" width="30" height="190" as="geometry" />
        </mxCell>
        <mxCell id="G2OFI__iiG1zhYpODbyy-315" style="edgeStyle=orthogonalEdgeStyle;rounded=0;orthogonalLoop=1;jettySize=auto;html=1;" parent="1" source="G2OFI__iiG1zhYpODbyy-316" target="G2OFI__iiG1zhYpODbyy-330" edge="1">
          <mxGeometry relative="1" as="geometry" />
        </mxCell>
        <mxCell id="G2OFI__iiG1zhYpODbyy-316" value="&lt;br style=&quot;font-size: 15px&quot;&gt;力学分析子系统" style="rounded=1;whiteSpace=wrap;html=1;fontSize=15;fontStyle=1" parent="1" vertex="1">
          <mxGeometry x="7259" y="3610" width="30" height="190" as="geometry" />
        </mxCell>
        <mxCell id="G2OFI__iiG1zhYpODbyy-317" style="edgeStyle=orthogonalEdgeStyle;rounded=0;orthogonalLoop=1;jettySize=auto;html=1;exitX=0.5;exitY=1;exitDx=0;exitDy=0;" parent="1" source="G2OFI__iiG1zhYpODbyy-318" target="G2OFI__iiG1zhYpODbyy-330" edge="1">
          <mxGeometry relative="1" as="geometry" />
        </mxCell>
        <mxCell id="G2OFI__iiG1zhYpODbyy-318" value="流体力学分析子系统" style="rounded=1;whiteSpace=wrap;html=1;imageWidth=2;fontSize=15;fontStyle=1" parent="1" vertex="1">
          <mxGeometry x="7309.5" y="3610" width="30" height="190" as="geometry" />
        </mxCell>
        <mxCell id="G2OFI__iiG1zhYpODbyy-319" style="edgeStyle=orthogonalEdgeStyle;rounded=0;orthogonalLoop=1;jettySize=auto;html=1;exitX=0.5;exitY=1;exitDx=0;exitDy=0;" parent="1" source="G2OFI__iiG1zhYpODbyy-321" target="G2OFI__iiG1zhYpODbyy-330" edge="1">
          <mxGeometry relative="1" as="geometry" />
        </mxCell>
        <mxCell id="G2OFI__iiG1zhYpODbyy-320" value="分析结果" style="edgeLabel;html=1;align=center;verticalAlign=middle;resizable=0;points=[];" parent="G2OFI__iiG1zhYpODbyy-319" vertex="1" connectable="0">
          <mxGeometry x="0.6053" y="1" relative="1" as="geometry">
            <mxPoint as="offset" />
          </mxGeometry>
        </mxCell>
        <mxCell id="G2OFI__iiG1zhYpODbyy-321" value="能耗分析子系统" style="rounded=1;whiteSpace=wrap;html=1;imageWidth=2;fontSize=15;fontStyle=1" parent="1" vertex="1">
          <mxGeometry x="7361" y="3610" width="30" height="190" as="geometry" />
        </mxCell>
        <mxCell id="G2OFI__iiG1zhYpODbyy-322" style="edgeStyle=orthogonalEdgeStyle;rounded=0;orthogonalLoop=1;jettySize=auto;html=1;exitX=0.5;exitY=1;exitDx=0;exitDy=0;" parent="1" source="G2OFI__iiG1zhYpODbyy-329" target="G2OFI__iiG1zhYpODbyy-310" edge="1">
          <mxGeometry relative="1" as="geometry" />
        </mxCell>
        <mxCell id="G2OFI__iiG1zhYpODbyy-323" style="edgeStyle=orthogonalEdgeStyle;rounded=0;orthogonalLoop=1;jettySize=auto;html=1;exitX=0.5;exitY=1;exitDx=0;exitDy=0;" parent="1" source="G2OFI__iiG1zhYpODbyy-329" target="G2OFI__iiG1zhYpODbyy-312" edge="1">
          <mxGeometry relative="1" as="geometry" />
        </mxCell>
        <mxCell id="G2OFI__iiG1zhYpODbyy-324" style="edgeStyle=orthogonalEdgeStyle;rounded=0;orthogonalLoop=1;jettySize=auto;html=1;" parent="1" source="G2OFI__iiG1zhYpODbyy-329" target="G2OFI__iiG1zhYpODbyy-314" edge="1">
          <mxGeometry relative="1" as="geometry" />
        </mxCell>
        <mxCell id="G2OFI__iiG1zhYpODbyy-325" style="edgeStyle=orthogonalEdgeStyle;rounded=0;orthogonalLoop=1;jettySize=auto;html=1;" parent="1" source="G2OFI__iiG1zhYpODbyy-329" target="G2OFI__iiG1zhYpODbyy-316" edge="1">
          <mxGeometry relative="1" as="geometry" />
        </mxCell>
        <mxCell id="G2OFI__iiG1zhYpODbyy-326" style="edgeStyle=orthogonalEdgeStyle;rounded=0;orthogonalLoop=1;jettySize=auto;html=1;exitX=0.5;exitY=1;exitDx=0;exitDy=0;" parent="1" source="G2OFI__iiG1zhYpODbyy-329" target="G2OFI__iiG1zhYpODbyy-318" edge="1">
          <mxGeometry relative="1" as="geometry" />
        </mxCell>
        <mxCell id="G2OFI__iiG1zhYpODbyy-327" style="edgeStyle=orthogonalEdgeStyle;rounded=0;orthogonalLoop=1;jettySize=auto;html=1;exitX=0.5;exitY=1;exitDx=0;exitDy=0;" parent="1" source="G2OFI__iiG1zhYpODbyy-329" target="G2OFI__iiG1zhYpODbyy-321" edge="1">
          <mxGeometry relative="1" as="geometry" />
        </mxCell>
        <mxCell id="G2OFI__iiG1zhYpODbyy-328" value="模拟数据" style="edgeLabel;html=1;align=center;verticalAlign=middle;resizable=0;points=[];" parent="G2OFI__iiG1zhYpODbyy-327" vertex="1" connectable="0">
          <mxGeometry x="-0.6091" y="3" relative="1" as="geometry">
            <mxPoint as="offset" />
          </mxGeometry>
        </mxCell>
        <mxCell id="G2OFI__iiG1zhYpODbyy-329" value="数据反演分系统" style="rounded=1;whiteSpace=wrap;html=1;fontSize=15;align=center;verticalAlign=middle;fontStyle=1" parent="1" vertex="1">
          <mxGeometry x="7158" y="3410" width="186" height="42" as="geometry" />
        </mxCell>
        <mxCell id="G2OFI__iiG1zhYpODbyy-330" value="仿真可视化分系统" style="rounded=1;whiteSpace=wrap;html=1;fontSize=15;align=center;verticalAlign=middle;fontStyle=1" parent="1" vertex="1">
          <mxGeometry x="7162" y="3983" width="186" height="42" as="geometry" />
        </mxCell>
        <mxCell id="G2OFI__iiG1zhYpODbyy-331" style="edgeStyle=orthogonalEdgeStyle;rounded=0;orthogonalLoop=1;jettySize=auto;html=1;exitX=0.5;exitY=1;exitDx=0;exitDy=0;" parent="1" source="G2OFI__iiG1zhYpODbyy-333" target="G2OFI__iiG1zhYpODbyy-366" edge="1">
          <mxGeometry relative="1" as="geometry" />
        </mxCell>
        <mxCell id="G2OFI__iiG1zhYpODbyy-332" style="edgeStyle=orthogonalEdgeStyle;rounded=0;orthogonalLoop=1;jettySize=auto;html=1;" parent="1" source="G2OFI__iiG1zhYpODbyy-333" target="G2OFI__iiG1zhYpODbyy-335" edge="1">
          <mxGeometry relative="1" as="geometry" />
        </mxCell>
        <mxCell id="G2OFI__iiG1zhYpODbyy-333" value="专家子系统" style="rounded=1;whiteSpace=wrap;html=1;fontSize=15;align=center;verticalAlign=middle;fontStyle=1" parent="1" vertex="1">
          <mxGeometry x="4866" y="2504" width="30" height="190" as="geometry" />
        </mxCell>
        <mxCell id="G2OFI__iiG1zhYpODbyy-334" style="edgeStyle=orthogonalEdgeStyle;rounded=0;orthogonalLoop=1;jettySize=auto;html=1;exitX=0.5;exitY=1;exitDx=0;exitDy=0;" parent="1" source="G2OFI__iiG1zhYpODbyy-335" target="G2OFI__iiG1zhYpODbyy-366" edge="1">
          <mxGeometry relative="1" as="geometry" />
        </mxCell>
        <mxCell id="G2OFI__iiG1zhYpODbyy-335" value="知识图谱子系统" style="rounded=1;fontSize=15;align=center;verticalAlign=middle;labelBackgroundColor=none;labelBorderColor=none;whiteSpace=wrap;html=1;fontStyle=1" parent="1" vertex="1">
          <mxGeometry x="5006" y="2504" width="30" height="190" as="geometry" />
        </mxCell>
        <mxCell id="G2OFI__iiG1zhYpODbyy-336" style="edgeStyle=orthogonalEdgeStyle;rounded=0;orthogonalLoop=1;jettySize=auto;html=1;exitX=0.5;exitY=1;exitDx=0;exitDy=0;" parent="1" source="G2OFI__iiG1zhYpODbyy-338" target="G2OFI__iiG1zhYpODbyy-333" edge="1">
          <mxGeometry relative="1" as="geometry" />
        </mxCell>
        <mxCell id="G2OFI__iiG1zhYpODbyy-337" style="edgeStyle=orthogonalEdgeStyle;rounded=0;orthogonalLoop=1;jettySize=auto;html=1;exitX=0.5;exitY=1;exitDx=0;exitDy=0;" parent="1" source="G2OFI__iiG1zhYpODbyy-338" target="G2OFI__iiG1zhYpODbyy-335" edge="1">
          <mxGeometry relative="1" as="geometry" />
        </mxCell>
        <mxCell id="G2OFI__iiG1zhYpODbyy-338" value="时空大数据通用平台" style="rounded=1;whiteSpace=wrap;html=1;fontSize=15;align=center;verticalAlign=middle;fontStyle=1" parent="1" vertex="1">
          <mxGeometry x="4910" y="2396" width="82" height="43" as="geometry" />
        </mxCell>
        <mxCell id="G2OFI__iiG1zhYpODbyy-339" style="edgeStyle=orthogonalEdgeStyle;rounded=0;orthogonalLoop=1;jettySize=auto;html=1;exitX=0.5;exitY=1;exitDx=0;exitDy=0;" parent="1" source="G2OFI__iiG1zhYpODbyy-340" target="G2OFI__iiG1zhYpODbyy-361" edge="1">
          <mxGeometry relative="1" as="geometry" />
        </mxCell>
        <mxCell id="G2OFI__iiG1zhYpODbyy-340" value="路径分析子系统" style="rounded=1;whiteSpace=wrap;html=1;fontSize=15;fontStyle=1" parent="1" vertex="1">
          <mxGeometry x="5220" y="2480" width="30" height="190" as="geometry" />
        </mxCell>
        <mxCell id="G2OFI__iiG1zhYpODbyy-341" style="edgeStyle=orthogonalEdgeStyle;rounded=0;orthogonalLoop=1;jettySize=auto;html=1;exitX=0.5;exitY=1;exitDx=0;exitDy=0;" parent="1" source="G2OFI__iiG1zhYpODbyy-342" target="G2OFI__iiG1zhYpODbyy-361" edge="1">
          <mxGeometry relative="1" as="geometry" />
        </mxCell>
        <mxCell id="G2OFI__iiG1zhYpODbyy-342" value="视觉分析子系统" style="rounded=1;whiteSpace=wrap;html=1;fontSize=15;fontStyle=1" parent="1" vertex="1">
          <mxGeometry x="5270" y="2480" width="30" height="190" as="geometry" />
        </mxCell>
        <mxCell id="G2OFI__iiG1zhYpODbyy-343" style="edgeStyle=orthogonalEdgeStyle;rounded=0;orthogonalLoop=1;jettySize=auto;html=1;" parent="1" source="G2OFI__iiG1zhYpODbyy-344" target="G2OFI__iiG1zhYpODbyy-361" edge="1">
          <mxGeometry relative="1" as="geometry" />
        </mxCell>
        <mxCell id="G2OFI__iiG1zhYpODbyy-344" value="光学分析子系统" style="rounded=1;whiteSpace=wrap;html=1;fontSize=15;fontStyle=1" parent="1" vertex="1">
          <mxGeometry x="5320" y="2480" width="30" height="190" as="geometry" />
        </mxCell>
        <mxCell id="G2OFI__iiG1zhYpODbyy-345" style="edgeStyle=orthogonalEdgeStyle;rounded=0;orthogonalLoop=1;jettySize=auto;html=1;" parent="1" source="G2OFI__iiG1zhYpODbyy-346" target="G2OFI__iiG1zhYpODbyy-361" edge="1">
          <mxGeometry relative="1" as="geometry" />
        </mxCell>
        <mxCell id="G2OFI__iiG1zhYpODbyy-346" value="&lt;br style=&quot;font-size: 15px&quot;&gt;力学分析子系统" style="rounded=1;whiteSpace=wrap;html=1;fontSize=15;fontStyle=1" parent="1" vertex="1">
          <mxGeometry x="5371" y="2480" width="30" height="190" as="geometry" />
        </mxCell>
        <mxCell id="G2OFI__iiG1zhYpODbyy-347" style="edgeStyle=orthogonalEdgeStyle;rounded=0;orthogonalLoop=1;jettySize=auto;html=1;exitX=0.5;exitY=1;exitDx=0;exitDy=0;" parent="1" source="G2OFI__iiG1zhYpODbyy-348" target="G2OFI__iiG1zhYpODbyy-361" edge="1">
          <mxGeometry relative="1" as="geometry" />
        </mxCell>
        <mxCell id="G2OFI__iiG1zhYpODbyy-348" value="流体力学分析子系统" style="rounded=1;whiteSpace=wrap;html=1;imageWidth=2;fontSize=15;fontStyle=1" parent="1" vertex="1">
          <mxGeometry x="5421.5" y="2480" width="30" height="190" as="geometry" />
        </mxCell>
        <mxCell id="G2OFI__iiG1zhYpODbyy-349" style="edgeStyle=orthogonalEdgeStyle;rounded=0;orthogonalLoop=1;jettySize=auto;html=1;exitX=0.5;exitY=1;exitDx=0;exitDy=0;" parent="1" source="G2OFI__iiG1zhYpODbyy-350" target="G2OFI__iiG1zhYpODbyy-361" edge="1">
          <mxGeometry relative="1" as="geometry" />
        </mxCell>
        <mxCell id="G2OFI__iiG1zhYpODbyy-350" value="能耗分析子系统" style="rounded=1;whiteSpace=wrap;html=1;imageWidth=2;fontSize=15;fontStyle=1" parent="1" vertex="1">
          <mxGeometry x="5473" y="2480" width="30" height="190" as="geometry" />
        </mxCell>
        <mxCell id="G2OFI__iiG1zhYpODbyy-351" style="edgeStyle=orthogonalEdgeStyle;rounded=0;orthogonalLoop=1;jettySize=auto;html=1;" parent="1" source="G2OFI__iiG1zhYpODbyy-352" target="G2OFI__iiG1zhYpODbyy-359" edge="1">
          <mxGeometry relative="1" as="geometry" />
        </mxCell>
        <mxCell id="G2OFI__iiG1zhYpODbyy-352" value="&lt;span style=&quot;font-size: 20px&quot;&gt;&lt;/span&gt;&lt;span style=&quot;color: black ; font-size: 20px&quot;&gt;开始&lt;/span&gt;" style="rounded=1;whiteSpace=wrap;html=1;fontSize=20;fontStyle=1" parent="1" vertex="1">
          <mxGeometry x="5323.5" y="2262" width="83" height="30" as="geometry" />
        </mxCell>
        <mxCell id="G2OFI__iiG1zhYpODbyy-353" style="edgeStyle=orthogonalEdgeStyle;rounded=0;orthogonalLoop=1;jettySize=auto;html=1;exitX=0.5;exitY=1;exitDx=0;exitDy=0;" parent="1" source="G2OFI__iiG1zhYpODbyy-359" target="G2OFI__iiG1zhYpODbyy-340" edge="1">
          <mxGeometry relative="1" as="geometry" />
        </mxCell>
        <mxCell id="G2OFI__iiG1zhYpODbyy-354" style="edgeStyle=orthogonalEdgeStyle;rounded=0;orthogonalLoop=1;jettySize=auto;html=1;exitX=0.5;exitY=1;exitDx=0;exitDy=0;" parent="1" source="G2OFI__iiG1zhYpODbyy-359" target="G2OFI__iiG1zhYpODbyy-342" edge="1">
          <mxGeometry relative="1" as="geometry" />
        </mxCell>
        <mxCell id="G2OFI__iiG1zhYpODbyy-355" style="edgeStyle=orthogonalEdgeStyle;rounded=0;orthogonalLoop=1;jettySize=auto;html=1;" parent="1" source="G2OFI__iiG1zhYpODbyy-359" target="G2OFI__iiG1zhYpODbyy-344" edge="1">
          <mxGeometry relative="1" as="geometry" />
        </mxCell>
        <mxCell id="G2OFI__iiG1zhYpODbyy-356" style="edgeStyle=orthogonalEdgeStyle;rounded=0;orthogonalLoop=1;jettySize=auto;html=1;" parent="1" source="G2OFI__iiG1zhYpODbyy-359" target="G2OFI__iiG1zhYpODbyy-346" edge="1">
          <mxGeometry relative="1" as="geometry" />
        </mxCell>
        <mxCell id="G2OFI__iiG1zhYpODbyy-357" style="edgeStyle=orthogonalEdgeStyle;rounded=0;orthogonalLoop=1;jettySize=auto;html=1;exitX=0.5;exitY=1;exitDx=0;exitDy=0;" parent="1" source="G2OFI__iiG1zhYpODbyy-359" target="G2OFI__iiG1zhYpODbyy-348" edge="1">
          <mxGeometry relative="1" as="geometry" />
        </mxCell>
        <mxCell id="G2OFI__iiG1zhYpODbyy-358" style="edgeStyle=orthogonalEdgeStyle;rounded=0;orthogonalLoop=1;jettySize=auto;html=1;exitX=0.5;exitY=1;exitDx=0;exitDy=0;" parent="1" source="G2OFI__iiG1zhYpODbyy-359" target="G2OFI__iiG1zhYpODbyy-350" edge="1">
          <mxGeometry relative="1" as="geometry" />
        </mxCell>
        <mxCell id="G2OFI__iiG1zhYpODbyy-359" value="数据反演分系统" style="rounded=1;whiteSpace=wrap;html=1;fontSize=15;align=center;verticalAlign=middle;fontStyle=1" parent="1" vertex="1">
          <mxGeometry x="5272" y="2341" width="186" height="42" as="geometry" />
        </mxCell>
        <mxCell id="G2OFI__iiG1zhYpODbyy-360" style="edgeStyle=orthogonalEdgeStyle;rounded=0;orthogonalLoop=1;jettySize=auto;html=1;entryX=0.5;entryY=0;entryDx=0;entryDy=0;" parent="1" source="G2OFI__iiG1zhYpODbyy-361" target="G2OFI__iiG1zhYpODbyy-362" edge="1">
          <mxGeometry relative="1" as="geometry" />
        </mxCell>
        <mxCell id="G2OFI__iiG1zhYpODbyy-361" value="仿真可视化分系统" style="rounded=1;whiteSpace=wrap;html=1;fontSize=15;align=center;verticalAlign=middle;fontStyle=1" parent="1" vertex="1">
          <mxGeometry x="5285" y="2755" width="186" height="42" as="geometry" />
        </mxCell>
        <mxCell id="G2OFI__iiG1zhYpODbyy-362" value="&lt;span style=&quot;font-size: 20px&quot;&gt;&lt;/span&gt;&lt;span style=&quot;color: black ; font-size: 20px&quot;&gt;结束&lt;/span&gt;" style="rounded=1;whiteSpace=wrap;html=1;fontSize=20;fontStyle=1" parent="1" vertex="1">
          <mxGeometry x="5336.5" y="2844" width="83" height="30" as="geometry" />
        </mxCell>
        <mxCell id="G2OFI__iiG1zhYpODbyy-363" style="edgeStyle=orthogonalEdgeStyle;rounded=0;orthogonalLoop=1;jettySize=auto;html=1;" parent="1" source="G2OFI__iiG1zhYpODbyy-364" target="G2OFI__iiG1zhYpODbyy-338" edge="1">
          <mxGeometry relative="1" as="geometry" />
        </mxCell>
        <mxCell id="G2OFI__iiG1zhYpODbyy-364" value="&lt;span style=&quot;font-size: 20px&quot;&gt;&lt;/span&gt;&lt;span style=&quot;color: black ; font-size: 20px&quot;&gt;开始&lt;/span&gt;" style="rounded=1;whiteSpace=wrap;html=1;fontSize=20;fontStyle=1" parent="1" vertex="1">
          <mxGeometry x="4909.5" y="2314" width="83" height="30" as="geometry" />
        </mxCell>
        <mxCell id="G2OFI__iiG1zhYpODbyy-365" style="edgeStyle=orthogonalEdgeStyle;rounded=0;orthogonalLoop=1;jettySize=auto;html=1;" parent="1" source="G2OFI__iiG1zhYpODbyy-366" target="G2OFI__iiG1zhYpODbyy-367" edge="1">
          <mxGeometry relative="1" as="geometry" />
        </mxCell>
        <mxCell id="G2OFI__iiG1zhYpODbyy-366" value="数据反演分系统" style="rounded=1;whiteSpace=wrap;html=1;fontSize=15;align=center;verticalAlign=middle;fontStyle=1" parent="1" vertex="1">
          <mxGeometry x="4910.5" y="2752" width="82" height="43" as="geometry" />
        </mxCell>
        <mxCell id="G2OFI__iiG1zhYpODbyy-367" value="&lt;span style=&quot;font-size: 20px&quot;&gt;&lt;/span&gt;&lt;span style=&quot;color: black ; font-size: 20px&quot;&gt;结束&lt;/span&gt;" style="rounded=1;whiteSpace=wrap;html=1;fontSize=20;fontStyle=1" parent="1" vertex="1">
          <mxGeometry x="4910.5" y="2833" width="83" height="30" as="geometry" />
        </mxCell>
      </root>
    </mxGraphModel>
  </diagram>
</mxfile>
